<?xml version="1.0" encoding="utf-8"?>
<!-- Generator: Adobe Illustrator 16.0.0, SVG Export Plug-In . SVG Version: 6.00 Build 0)  -->
<!DOCTYPE svg PUBLIC "-//W3C//DTD SVG 1.1//EN" "http://www.w3.org/Graphics/SVG/1.1/DTD/svg11.dtd">
<svg version="1.1" id="Layer_1" xmlns="http://www.w3.org/2000/svg" xmlns:xlink="http://www.w3.org/1999/xlink" x="0px" y="0px"
	 width="5160.55px" height="4722.51px" viewBox="0 0 5160.55 4722.51" enable-background="new 0 0 5160.55 4722.51"
	 xml:space="preserve">
<g>
	<defs>
		<rect id="SVGID_1_" y="-0.001" width="5160.553" height="4722.511"/>
	</defs>
	<clipPath id="SVGID_2_">
		<use xlink:href="#SVGID_1_"  overflow="visible"/>
	</clipPath>
	<path clip-path="url(#SVGID_2_)" fill="#1D1D1B" d="M2989.914,409.105l-416.295-240.414c-0.463-0.268-1.035-0.269-1.499,0
		l-0.001-0.001l-416.5,240.383c-0.464,0.268-0.75,0.763-0.75,1.299l-0.057,480.934c0,0.535,0.286,1.031,0.75,1.299
		c0.232,0.134,0.492,0.201,0.75,0.201c0.259,0,0.519-0.067,0.75-0.201l103.415-59.705l311.539,179.871
		c0.231,0.134,0.491,0.201,0.75,0.201c0.258,0,0.518-0.067,0.75-0.201l311.573-179.888l103.324,59.667
		c0.232,0.134,0.491,0.201,0.75,0.201c0.26,0,0.52-0.067,0.75-0.201c0.465-0.268,0.75-0.763,0.75-1.299V410.404
		C2990.664,409.868,2990.379,409.372,2989.914,409.105 M2572.869,291.943l309.275,178.624L2781.1,528.859l-207.531-119.702
		c-0.014-0.008-0.03-0.012-0.044-0.019c-0.048-0.026-0.097-0.046-0.147-0.066c-0.043-0.018-0.086-0.036-0.13-0.049
		c-0.046-0.014-0.093-0.022-0.14-0.031c-0.048-0.01-0.096-0.02-0.145-0.025c-0.048-0.005-0.095-0.004-0.143-0.004
		s-0.095-0.001-0.143,0.004c-0.049,0.005-0.098,0.015-0.146,0.025c-0.047,0.009-0.093,0.017-0.138,0.031
		c-0.046,0.014-0.091,0.032-0.136,0.05c-0.047,0.02-0.094,0.039-0.139,0.063c-0.016,0.008-0.033,0.012-0.048,0.021l-207.51,119.694
		l-101.081-58.397L2572.869,291.943z M2677.668,589.458l-103.299-59.704v-116.67l205.092,118.295l0.054,237.075l-101.097-58.379
		V590.756C2678.418,590.221,2678.133,589.726,2677.668,589.458 M2470.228,593.345l101.039,58.391v116.669l-100.896-58.192
		c-0.029-0.081-0.063-0.161-0.107-0.238c-0.01-0.018-0.025-0.033-0.036-0.051V593.345z M2467.977,589.447
		c-0.464,0.268-0.749,0.763-0.749,1.299v119.251l-101.09,58.436l-0.189-236.921l205.421-118.488v116.677L2467.977,589.447z
		 M2471.726,590.746l101.099-58.421l101.081,58.422l-101.138,58.391L2471.726,590.746z M2574.267,651.736l101.151-58.399v116.736
		l-101.151,58.332V651.736z M2260.415,831.168l-0.015-0.027h0.031L2260.415,831.168z M2259.729,469.153
		c-0.464,0.268-0.751,0.763-0.751,1.3l-0.048,359.876l-101.117,58.379l0.056-477.469l413.5-238.651v116.757L2259.729,469.153z
		 M2571.267,1008.874l-309.336-178.599l0.048-357.224l100.97,58.334l0.191,239.647c0,0.014,0.004,0.026,0.005,0.039
		c0.003,0.119,0.016,0.237,0.047,0.352c0.001,0.002,0.002,0.005,0.003,0.008c0.031,0.11,0.076,0.215,0.131,0.315
		c0.017,0.029,0.033,0.055,0.051,0.083c0.047,0.075,0.102,0.146,0.163,0.213c0.021,0.023,0.041,0.047,0.064,0.069
		c0.085,0.082,0.178,0.158,0.285,0.219l207.378,119.785V1008.874z M2572.869,889.576l-205.231-118.545l101.038-58.333
		l103.341,59.602c0.232,0.134,0.491,0.201,0.75,0.201c0.258,0,0.517-0.067,0.749-0.201l103.402-59.628l101.071,58.364
		L2572.869,889.576z M2883.609,830.274l-309.343,178.6V892.235l207.498-119.915c0.464-0.269,0.75-0.764,0.75-1.3l-0.054-239.483
		l101.184-58.372L2883.609,830.274z M2987.664,888.653l-101.055-58.355l0.035-359.729c0-0.536-0.285-1.031-0.749-1.299
		c-0.001,0-0.001,0-0.002-0.001l-311.524-179.922V172.588l413.295,238.681V888.653z"/>
	<path clip-path="url(#SVGID_2_)" fill="#1D1D1B" d="M3822.756,408.747l-416.295-240.414c-0.463-0.268-1.035-0.269-1.5-0.001
		l-416.5,240.383c-0.464,0.268-0.75,0.763-0.75,1.299l-0.057,480.934c0,0.535,0.287,1.031,0.75,1.299
		c0.232,0.134,0.492,0.201,0.75,0.201c0.259,0,0.52-0.067,0.75-0.201l103.415-59.706l311.539,179.872
		c0.231,0.134,0.491,0.201,0.75,0.201c0.258,0,0.518-0.067,0.75-0.201l311.573-179.888l103.324,59.667
		c0.232,0.134,0.491,0.201,0.75,0.201c0.26,0,0.52-0.067,0.75-0.201c0.465-0.268,0.75-0.763,0.75-1.299V410.045
		C3823.506,409.509,3823.221,409.013,3822.756,408.747 M3405.711,291.584l309.275,178.624L3613.942,528.5L3406.41,408.798
		c-0.014-0.008-0.03-0.012-0.045-0.02c-0.046-0.025-0.096-0.046-0.146-0.066c-0.043-0.017-0.086-0.035-0.129-0.049
		c-0.047-0.013-0.094-0.022-0.142-0.031c-0.047-0.01-0.095-0.02-0.144-0.024c-0.047-0.005-0.096-0.004-0.144-0.004
		s-0.095-0.001-0.143,0.004c-0.05,0.004-0.098,0.015-0.146,0.024c-0.047,0.009-0.093,0.018-0.138,0.031
		c-0.046,0.014-0.09,0.033-0.137,0.051c-0.047,0.019-0.094,0.038-0.139,0.063c-0.015,0.008-0.031,0.012-0.048,0.021l-207.51,119.693
		l-101.081-58.397L3405.711,291.584z M3510.512,589.099l-103.301-59.705v-116.67l205.092,118.296l0.054,237.074l-101.097-58.379
		V590.397C3511.26,589.862,3510.976,589.367,3510.512,589.099 M3303.069,592.986l101.039,58.391v116.668l-100.896-58.192
		c-0.028-0.08-0.062-0.161-0.105-0.237c-0.011-0.019-0.026-0.033-0.037-0.051V592.986z M3300.819,589.088
		c-0.464,0.268-0.75,0.763-0.75,1.299v119.251l-101.09,58.436l-0.189-236.921l205.421-118.488v116.676L3300.819,589.088z
		 M3304.567,590.387l101.099-58.421l101.08,58.422l-101.137,58.391L3304.567,590.387z M3407.108,651.377l101.151-58.398v116.736
		l-101.151,58.331V651.377z M3093.256,830.81l-0.016-0.027h0.032L3093.256,830.81z M3092.571,468.794
		c-0.464,0.268-0.751,0.763-0.751,1.3l-0.048,359.875l-101.117,58.38l0.056-477.469l413.5-238.652v116.758L3092.571,468.794z
		 M3404.108,1008.516l-309.336-178.6l0.048-357.224l100.97,58.333l0.191,239.648c0,0.013,0.004,0.025,0.004,0.038
		c0.004,0.12,0.017,0.238,0.047,0.352c0.001,0.003,0.003,0.006,0.004,0.009c0.031,0.11,0.076,0.214,0.131,0.315
		c0.017,0.028,0.033,0.055,0.052,0.082c0.048,0.076,0.101,0.146,0.162,0.213c0.021,0.023,0.041,0.048,0.063,0.069
		c0.086,0.081,0.179,0.157,0.287,0.219l207.377,119.784V1008.516z M3405.711,889.217l-205.23-118.545l101.037-58.333l103.342,59.602
		c0.23,0.134,0.49,0.201,0.749,0.201c0.258,0,0.517-0.067,0.75-0.201l103.401-59.629l101.071,58.365L3405.711,889.217z
		 M3716.451,829.915l-309.343,178.601V891.875l207.499-119.914c0.463-0.269,0.749-0.764,0.749-1.3l-0.054-239.483l101.184-58.372
		L3716.451,829.915z M3820.506,888.294l-101.055-58.355l0.035-359.729c0-0.536-0.285-1.031-0.749-1.299l-0.002-0.001
		l-311.524-179.922V172.229l413.295,238.681V888.294z"/>
	<path clip-path="url(#SVGID_2_)" fill="#1D1D1B" d="M2573.269,1130.416l-416.295-240.414c-0.463-0.268-1.036-0.269-1.499-0.001
		h-0.001l-416.5,240.383c-0.464,0.268-0.75,0.763-0.75,1.299l-0.056,480.933c0,0.536,0.285,1.032,0.75,1.299
		c0.231,0.135,0.491,0.201,0.75,0.201c0.258,0,0.518-0.066,0.75-0.201l103.413-59.705l311.54,179.871
		c0.231,0.135,0.491,0.201,0.75,0.201c0.258,0,0.518-0.066,0.75-0.201l311.573-179.887l103.325,59.666
		c0.232,0.135,0.491,0.202,0.75,0.202c0.259,0,0.518-0.067,0.75-0.202c0.464-0.267,0.75-0.762,0.75-1.298v-480.849
		C2574.019,1131.179,2573.733,1130.683,2573.269,1130.416 M2156.224,1013.254l309.275,178.624l-101.045,58.292l-207.531-119.702
		c-0.014-0.008-0.03-0.012-0.045-0.02c-0.047-0.026-0.096-0.046-0.146-0.066c-0.043-0.018-0.086-0.036-0.13-0.049
		c-0.046-0.014-0.093-0.021-0.141-0.031c-0.048-0.01-0.095-0.02-0.144-0.025c-0.048-0.004-0.095-0.003-0.143-0.003
		s-0.096-0.001-0.143,0.003c-0.049,0.005-0.098,0.016-0.146,0.025c-0.047,0.009-0.093,0.017-0.138,0.031
		c-0.046,0.014-0.091,0.032-0.136,0.051c-0.047,0.019-0.094,0.038-0.139,0.062c-0.016,0.009-0.033,0.013-0.048,0.022
		l-207.51,119.693l-101.08-58.397L2156.224,1013.254z M2261.023,1310.769l-103.299-59.705v-116.67l205.092,118.296l0.052,237.075
		l-101.095-58.38v-119.317C2261.773,1311.531,2261.487,1311.036,2261.023,1310.769 M2053.582,1314.655l101.039,58.392v116.668
		l-100.896-58.191c-0.029-0.081-0.063-0.162-0.107-0.239c-0.011-0.018-0.025-0.032-0.036-0.05V1314.655z M2051.331,1310.757
		c-0.464,0.269-0.749,0.764-0.749,1.299v119.252l-101.09,58.435l-0.189-236.92l205.421-118.488v116.676L2051.331,1310.757z
		 M2055.08,1312.056l101.099-58.421l101.08,58.423l-101.138,58.391L2055.08,1312.056z M2157.621,1373.047l101.152-58.398v116.736
		l-101.152,58.332V1373.047z M1843.769,1552.479l-0.015-0.028h0.031L1843.769,1552.479z M1843.084,1190.464
		c-0.464,0.269-0.75,0.764-0.75,1.299l-0.049,359.877l-101.117,58.379l0.056-477.47l413.5-238.651v116.757L1843.084,1190.464z
		 M2154.621,1730.186l-309.336-178.6l0.048-357.224l100.97,58.333l0.191,239.648c0,0.014,0.005,0.025,0.005,0.038
		c0.003,0.119,0.016,0.237,0.047,0.353c0,0.002,0.002,0.005,0.003,0.008c0.031,0.11,0.077,0.214,0.131,0.315
		c0.016,0.028,0.033,0.054,0.051,0.083c0.047,0.075,0.102,0.145,0.163,0.213c0.022,0.021,0.041,0.047,0.064,0.067
		c0.086,0.082,0.178,0.158,0.285,0.22l207.378,119.785V1730.186z M2156.224,1610.887l-205.231-118.545l101.038-58.333
		l103.341,59.602c0.232,0.134,0.491,0.201,0.75,0.201c0.258,0,0.517-0.067,0.749-0.201l103.403-59.629l101.071,58.365
		L2156.224,1610.887z M2466.964,1551.584l-309.343,178.602v-116.641l207.498-119.915c0.464-0.268,0.75-0.763,0.75-1.299
		l-0.053-239.484l101.183-58.371L2466.964,1551.584z M2571.019,1609.964l-101.055-58.354l0.035-359.73
		c0-0.536-0.285-1.031-0.749-1.299c-0.001-0.001-0.001-0.001-0.002-0.001l-311.524-179.923V893.899l413.295,238.681V1609.964z"/>
	<path clip-path="url(#SVGID_2_)" fill="#1D1D1B" d="M3406.121,1130.774L2989.825,890.36c-0.463-0.267-1.034-0.268-1.5,0
		l-416.5,240.382c-0.464,0.269-0.75,0.764-0.75,1.3l-0.057,480.933c0,0.536,0.286,1.032,0.75,1.299
		c0.232,0.135,0.492,0.201,0.75,0.201c0.259,0,0.519-0.066,0.75-0.201l103.414-59.705l311.54,179.871
		c0.232,0.135,0.49,0.201,0.75,0.201c0.258,0,0.518-0.066,0.75-0.201l311.572-179.887l103.326,59.666
		c0.231,0.135,0.49,0.202,0.75,0.202c0.258,0,0.519-0.067,0.75-0.202c0.463-0.267,0.75-0.762,0.75-1.298v-480.849
		C3406.871,1131.538,3406.586,1131.042,3406.121,1130.774 M2989.075,1013.613l309.275,178.624l-101.045,58.292l-207.531-119.703
		c-0.014-0.007-0.03-0.011-0.045-0.019c-0.047-0.026-0.096-0.046-0.146-0.066c-0.043-0.018-0.086-0.036-0.131-0.049
		c-0.046-0.014-0.093-0.021-0.141-0.031c-0.047-0.01-0.095-0.02-0.145-0.025c-0.047-0.004-0.095-0.003-0.143-0.003
		c-0.049,0-0.095-0.001-0.143,0.003c-0.049,0.005-0.099,0.015-0.147,0.025c-0.046,0.009-0.092,0.017-0.137,0.031
		c-0.046,0.014-0.091,0.032-0.136,0.05c-0.047,0.02-0.095,0.039-0.14,0.063c-0.015,0.008-0.032,0.013-0.048,0.021l-207.51,119.694
		l-101.081-58.397L2989.075,1013.613z M3093.875,1311.128l-103.3-59.705v-116.67l205.093,118.295l0.053,237.076l-101.096-58.38
		v-119.317C3094.625,1311.891,3094.34,1311.396,3093.875,1311.128 M2886.434,1315.015l101.039,58.392v116.668l-100.896-58.191
		c-0.028-0.081-0.062-0.162-0.105-0.239c-0.012-0.018-0.026-0.033-0.037-0.05V1315.015z M2884.184,1311.117
		c-0.464,0.268-0.75,0.763-0.75,1.299v119.252l-101.09,58.435l-0.189-236.921l205.421-118.487v116.676L2884.184,1311.117z
		 M2887.932,1312.416l101.099-58.421l101.08,58.423l-101.137,58.39L2887.932,1312.416z M2990.473,1373.406l101.152-58.398v116.736
		l-101.152,58.331V1373.406z M2676.621,1552.839l-0.016-0.028h0.031L2676.621,1552.839z M2675.936,1190.823
		c-0.464,0.269-0.751,0.764-0.751,1.299L2675.137,1552l-101.117,58.379l0.056-477.47l413.5-238.651v116.757L2675.936,1190.823z
		 M2987.473,1730.545l-309.336-178.6l0.048-357.225l100.97,58.334l0.191,239.648c0,0.014,0.004,0.025,0.005,0.038
		c0.003,0.119,0.016,0.237,0.047,0.353c0,0.002,0.002,0.005,0.003,0.008c0.031,0.11,0.076,0.214,0.131,0.315
		c0.017,0.028,0.033,0.054,0.051,0.083c0.047,0.075,0.103,0.145,0.164,0.213c0.021,0.021,0.041,0.047,0.063,0.067
		c0.085,0.082,0.178,0.158,0.285,0.22l207.378,119.785V1730.545z M2989.075,1611.247l-205.231-118.545l101.038-58.333
		l103.342,59.602c0.231,0.134,0.489,0.201,0.749,0.201c0.258,0,0.517-0.067,0.75-0.201l103.402-59.629l101.07,58.365
		L2989.075,1611.247z M3299.815,1551.943l-309.343,178.602v-116.641l207.499-119.915c0.463-0.268,0.749-0.763,0.749-1.299
		l-0.053-239.484l101.183-58.372L3299.815,1551.943z M3403.871,1610.323l-101.056-58.355l0.035-359.73
		c0-0.536-0.285-1.031-0.749-1.299c-0.001,0-0.002,0-0.002,0l-311.524-179.923V894.259l413.296,238.681V1610.323z"/>
	<path clip-path="url(#SVGID_2_)" fill="#1D1D1B" d="M4238.963,1130.416l-416.296-240.414c-0.463-0.268-1.034-0.269-1.5-0.001
		l-416.5,240.383c-0.464,0.268-0.75,0.763-0.75,1.299l-0.057,480.933c0,0.536,0.287,1.032,0.75,1.299
		c0.233,0.135,0.492,0.201,0.75,0.201c0.259,0,0.519-0.066,0.75-0.201l103.415-59.705l311.539,179.871
		c0.232,0.135,0.49,0.201,0.75,0.201c0.258,0,0.518-0.066,0.75-0.201l311.572-179.887l103.326,59.666
		c0.231,0.135,0.49,0.202,0.75,0.202c0.258,0,0.518-0.067,0.75-0.202c0.463-0.267,0.75-0.762,0.75-1.298v-480.849
		C4239.713,1131.179,4239.428,1130.683,4238.963,1130.416 M3821.917,1013.254l309.275,178.624l-101.045,58.292l-207.531-119.702
		c-0.014-0.008-0.03-0.012-0.045-0.02c-0.047-0.026-0.096-0.046-0.146-0.066c-0.043-0.018-0.086-0.036-0.131-0.049
		c-0.046-0.014-0.093-0.021-0.141-0.031c-0.047-0.01-0.095-0.02-0.145-0.025c-0.047-0.004-0.095-0.003-0.143-0.003
		c-0.049,0-0.095-0.001-0.143,0.003c-0.049,0.005-0.099,0.016-0.147,0.025c-0.046,0.009-0.092,0.017-0.137,0.031
		c-0.046,0.014-0.091,0.032-0.136,0.051c-0.047,0.019-0.095,0.038-0.14,0.062c-0.015,0.009-0.032,0.013-0.048,0.022l-207.51,119.693
		l-101.081-58.397L3821.917,1013.254z M3926.717,1310.769l-103.3-59.705v-116.67l205.093,118.296l0.053,237.075l-101.096-58.38
		v-119.317C3927.467,1311.531,3927.182,1311.036,3926.717,1310.769 M3719.275,1314.655l101.039,58.392v116.668l-100.896-58.191
		c-0.028-0.081-0.062-0.162-0.105-0.239c-0.012-0.018-0.026-0.032-0.037-0.05V1314.655z M3717.025,1310.757
		c-0.464,0.269-0.75,0.764-0.75,1.299v119.252l-101.09,58.435l-0.189-236.92l205.421-118.488v116.676L3717.025,1310.757z
		 M3720.773,1312.056l101.099-58.421l101.08,58.423l-101.137,58.391L3720.773,1312.056z M3823.314,1373.047l101.152-58.398v116.736
		l-101.152,58.332V1373.047z M3509.463,1552.479l-0.017-0.028h0.032L3509.463,1552.479z M3508.777,1190.464
		c-0.464,0.269-0.751,0.764-0.751,1.299l-0.048,359.877l-101.117,58.379l0.056-477.47l413.5-238.651v116.757L3508.777,1190.464z
		 M3820.314,1730.186l-309.336-178.6l0.048-357.224l100.97,58.333l0.191,239.648c0,0.014,0.004,0.025,0.004,0.038
		c0.004,0.119,0.017,0.237,0.047,0.353c0.001,0.002,0.003,0.005,0.004,0.008c0.031,0.11,0.076,0.214,0.131,0.315
		c0.017,0.028,0.033,0.054,0.051,0.083c0.049,0.075,0.102,0.145,0.164,0.213c0.021,0.021,0.041,0.047,0.063,0.067
		c0.086,0.082,0.179,0.158,0.287,0.22l207.377,119.785V1730.186z M3821.917,1610.887l-205.23-118.545l101.037-58.333l103.342,59.602
		c0.231,0.134,0.489,0.201,0.749,0.201c0.258,0,0.517-0.067,0.75-0.201l103.402-59.629l101.07,58.365L3821.917,1610.887z
		 M4132.657,1551.584l-309.343,178.602v-116.641l207.499-119.915c0.463-0.268,0.749-0.763,0.749-1.299l-0.053-239.484
		l101.183-58.371L4132.657,1551.584z M4236.713,1609.964l-101.056-58.354l0.035-359.73c0-0.536-0.285-1.031-0.749-1.299
		c-0.001-0.001-0.002-0.001-0.002-0.001l-311.524-179.923V893.899l413.296,238.681V1609.964z"/>
	<path clip-path="url(#SVGID_2_)" fill="#1D1D1B" d="M2573.042,4015.528l-416.295-240.414c-0.463-0.268-1.036-0.269-1.5,0v-0.001
		l-416.5,240.383c-0.464,0.269-0.75,0.765-0.75,1.301l-0.056,480.933c0,0.535,0.285,1.031,0.75,1.299
		c0.231,0.134,0.491,0.201,0.75,0.201c0.258,0,0.518-0.067,0.75-0.201l103.413-59.705l311.54,179.871
		c0.231,0.134,0.491,0.201,0.75,0.201c0.258,0,0.518-0.067,0.75-0.201l311.573-179.888l103.325,59.667
		c0.232,0.134,0.491,0.202,0.75,0.202c0.259,0,0.518-0.068,0.75-0.202c0.464-0.268,0.75-0.762,0.75-1.298v-480.849
		C2573.792,4016.291,2573.506,4015.797,2573.042,4015.528 M2155.997,3898.366l309.275,178.624l-101.045,58.292l-207.531-119.702
		c-0.015-0.008-0.03-0.012-0.045-0.02c-0.047-0.025-0.096-0.046-0.146-0.066c-0.043-0.017-0.086-0.035-0.13-0.048
		c-0.046-0.014-0.093-0.021-0.141-0.032c-0.048-0.009-0.095-0.02-0.144-0.024c-0.048-0.003-0.095-0.002-0.143-0.002
		c-0.049,0-0.096-0.001-0.143,0.002c-0.05,0.005-0.099,0.016-0.147,0.024c-0.046,0.011-0.092,0.018-0.137,0.031
		c-0.046,0.014-0.091,0.032-0.136,0.051c-0.048,0.02-0.094,0.039-0.139,0.063c-0.016,0.009-0.033,0.013-0.048,0.021
		l-207.511,119.693l-101.079-58.396L2155.997,3898.366z M2260.796,4195.882l-103.299-59.705v-116.67l205.092,118.295l0.052,237.075
		l-101.095-58.38v-119.316C2261.546,4196.644,2261.26,4196.148,2260.796,4195.882 M2053.355,4199.768l101.039,58.392v116.669
		l-100.896-58.191c-0.028-0.081-0.062-0.162-0.106-0.238c-0.011-0.018-0.025-0.033-0.036-0.051V4199.768z M2051.104,4195.87
		c-0.464,0.269-0.749,0.764-0.749,1.3v119.252l-101.09,58.435l-0.189-236.921l205.421-118.488v116.678L2051.104,4195.87z
		 M2054.854,4197.17l101.099-58.422l101.08,58.423l-101.138,58.391L2054.854,4197.17z M2157.395,4258.159l101.152-58.398v116.735
		l-101.152,58.332V4258.159z M1843.542,4437.592l-0.016-0.027h0.032L1843.542,4437.592z M1842.857,4075.576
		c-0.464,0.27-0.75,0.765-0.75,1.301l-0.049,359.876l-101.117,58.379l0.056-477.47l413.5-238.65v116.757L1842.857,4075.576z
		 M2154.395,4615.298l-309.336-178.6l0.048-357.224l100.97,58.333l0.191,239.648c0,0.014,0.004,0.024,0.005,0.038
		c0.003,0.119,0.016,0.237,0.046,0.353c0.001,0.002,0.003,0.005,0.004,0.008c0.03,0.11,0.077,0.214,0.131,0.315
		c0.015,0.028,0.033,0.055,0.051,0.083c0.047,0.074,0.102,0.146,0.163,0.213c0.021,0.022,0.041,0.047,0.064,0.068
		c0.085,0.082,0.178,0.157,0.285,0.221l207.378,119.783V4615.298z M2155.997,4496l-205.231-118.546l101.037-58.333l103.342,59.603
		c0.232,0.134,0.491,0.202,0.75,0.202c0.258,0,0.517-0.068,0.749-0.202l103.403-59.628l101.071,58.363L2155.997,4496z
		 M2466.737,4436.697l-309.343,178.601v-116.641l207.498-119.914c0.464-0.269,0.75-0.764,0.75-1.3l-0.053-239.482l101.183-58.372
		L2466.737,4436.697z M2570.792,4495.076l-101.055-58.354l0.035-359.73c0-0.536-0.285-1.03-0.749-1.299
		c-0.001-0.001-0.002-0.001-0.002-0.001l-311.524-179.923v-116.756l413.295,238.68V4495.076z"/>
	<path clip-path="url(#SVGID_2_)" fill="#1D1D1B" d="M3405.895,4015.888l-416.296-240.414c-0.464-0.268-1.034-0.269-1.5-0.001
		l-416.5,240.383c-0.464,0.269-0.75,0.765-0.75,1.301l-0.057,480.933c0,0.535,0.286,1.031,0.75,1.299
		c0.232,0.134,0.492,0.201,0.75,0.201c0.259,0,0.519-0.067,0.75-0.201l103.414-59.705l311.54,179.871
		c0.23,0.134,0.49,0.201,0.75,0.201c0.258,0,0.517-0.067,0.75-0.201l311.572-179.888l103.326,59.667
		c0.23,0.134,0.49,0.202,0.75,0.202c0.258,0,0.518-0.068,0.75-0.202c0.463-0.268,0.75-0.762,0.75-1.298v-480.849
		C3406.645,4016.65,3406.357,4016.156,3405.895,4015.888 M2988.848,3898.726l309.276,178.624l-101.045,58.292l-207.532-119.702
		c-0.013-0.008-0.029-0.012-0.044-0.02c-0.047-0.025-0.096-0.046-0.146-0.066c-0.043-0.018-0.086-0.034-0.131-0.048
		c-0.047-0.015-0.094-0.021-0.141-0.032c-0.047-0.01-0.095-0.02-0.145-0.024c-0.047-0.004-0.095-0.002-0.144-0.003
		c-0.048,0.001-0.095-0.001-0.142,0.003c-0.049,0.005-0.099,0.016-0.147,0.024c-0.046,0.011-0.093,0.018-0.137,0.031
		c-0.046,0.015-0.091,0.032-0.136,0.051c-0.047,0.02-0.095,0.039-0.141,0.063c-0.015,0.009-0.031,0.013-0.048,0.021l-207.51,119.693
		l-101.08-58.396L2988.848,3898.726z M3093.648,4196.241l-103.3-59.705v-116.67l205.093,118.295l0.052,237.075l-101.095-58.38
		V4197.54C3094.398,4197.003,3094.111,4196.508,3093.648,4196.241 M2886.207,4200.127l101.039,58.392v116.669l-100.896-58.191
		c-0.028-0.081-0.062-0.162-0.106-0.238c-0.011-0.018-0.026-0.033-0.036-0.051V4200.127z M2883.956,4196.229
		c-0.464,0.269-0.749,0.764-0.749,1.3v119.252l-101.09,58.435l-0.189-236.921l205.421-118.488v116.678L2883.956,4196.229z
		 M2887.705,4197.529l101.099-58.422l101.08,58.423l-101.138,58.391L2887.705,4197.529z M2990.246,4258.519l101.152-58.398v116.735
		l-101.152,58.332V4258.519z M2676.395,4437.951l-0.017-0.027h0.032L2676.395,4437.951z M2675.709,4075.936
		c-0.464,0.27-0.751,0.765-0.751,1.301l-0.048,359.876l-101.117,58.379l0.056-477.47l413.5-238.65v116.756L2675.709,4075.936z
		 M2987.246,4615.657l-309.336-178.6l0.048-357.224l100.97,58.333l0.191,239.648c0,0.014,0.004,0.024,0.004,0.038
		c0.004,0.119,0.017,0.237,0.047,0.353c0.001,0.002,0.003,0.005,0.004,0.008c0.03,0.11,0.076,0.214,0.131,0.315
		c0.016,0.028,0.033,0.055,0.051,0.083c0.047,0.074,0.102,0.146,0.164,0.213c0.021,0.022,0.041,0.047,0.063,0.068
		c0.086,0.082,0.179,0.157,0.286,0.221l207.378,119.783V4615.657z M2988.849,4496.36l-205.231-118.547l101.038-58.333
		l103.341,59.603c0.232,0.134,0.49,0.202,0.75,0.202c0.258,0,0.517-0.068,0.749-0.202l103.403-59.628l101.069,58.364
		L2988.849,4496.36z M3299.589,4437.057l-309.343,178.601v-116.641l207.498-119.914c0.463-0.269,0.75-0.764,0.75-1.3l-0.053-239.482
		l101.182-58.372L3299.589,4437.057z M3403.645,4495.436l-101.056-58.354l0.035-359.73c0-0.536-0.286-1.03-0.75-1.299
		c0-0.001-0.001-0.001-0.001-0.001l-311.524-179.923v-116.756l413.296,238.68V4495.436z"/>
	<path clip-path="url(#SVGID_2_)" fill="#1D1D1B" d="M4238.736,4015.528l-416.296-240.414c-0.464-0.268-1.034-0.269-1.5,0v-0.001
		l-416.5,240.383c-0.464,0.269-0.75,0.765-0.75,1.301l-0.057,480.933c0,0.535,0.286,1.031,0.75,1.299
		c0.231,0.134,0.492,0.201,0.75,0.201c0.259,0,0.519-0.067,0.75-0.201l103.414-59.705l311.54,179.871
		c0.23,0.134,0.49,0.201,0.75,0.201c0.258,0,0.517-0.067,0.75-0.201l311.572-179.888l103.326,59.667
		c0.23,0.134,0.49,0.202,0.75,0.202c0.258,0,0.518-0.068,0.75-0.202c0.463-0.268,0.75-0.762,0.75-1.298v-480.849
		C4239.486,4016.291,4239.199,4015.797,4238.736,4015.528 M3821.689,3898.366l309.276,178.624l-101.045,58.292l-207.532-119.702
		c-0.013-0.008-0.029-0.012-0.044-0.02c-0.047-0.025-0.096-0.046-0.146-0.066c-0.043-0.017-0.086-0.035-0.131-0.048
		c-0.047-0.014-0.094-0.021-0.141-0.032c-0.047-0.009-0.095-0.02-0.145-0.024c-0.047-0.003-0.095-0.002-0.144-0.002
		c-0.048,0-0.095-0.001-0.142,0.002c-0.049,0.005-0.099,0.016-0.147,0.024c-0.046,0.011-0.093,0.018-0.137,0.031
		c-0.046,0.014-0.091,0.032-0.136,0.051c-0.047,0.02-0.095,0.039-0.141,0.063c-0.015,0.009-0.031,0.013-0.048,0.021
		l-207.509,119.693l-101.081-58.396L3821.689,3898.366z M3926.49,4195.882l-103.3-59.705v-116.67l205.093,118.295l0.052,237.075
		l-101.095-58.38v-119.316C3927.24,4196.644,3926.953,4196.148,3926.49,4195.882 M3719.049,4199.768l101.039,58.392v116.669
		l-100.896-58.191c-0.028-0.081-0.062-0.162-0.106-0.238c-0.011-0.018-0.026-0.033-0.036-0.051V4199.768z M3716.798,4195.87
		c-0.464,0.269-0.749,0.764-0.749,1.3v119.252l-101.09,58.435l-0.19-236.921l205.422-118.488v116.678L3716.798,4195.87z
		 M3720.547,4197.17l101.099-58.422l101.08,58.423l-101.138,58.391L3720.547,4197.17z M3823.088,4258.159l101.152-58.398v116.735
		l-101.152,58.332V4258.159z M3509.236,4437.592l-0.017-0.027h0.032L3509.236,4437.592z M3508.55,4075.576
		c-0.463,0.27-0.75,0.765-0.75,1.301l-0.048,359.876l-101.118,58.379l0.057-477.47l413.5-238.65v116.757L3508.55,4075.576z
		 M3820.088,4615.298l-309.336-178.6l0.047-357.224l100.97,58.333l0.192,239.648c0,0.014,0.004,0.024,0.004,0.038
		c0.003,0.119,0.017,0.237,0.047,0.353c0.001,0.002,0.003,0.005,0.003,0.008c0.032,0.11,0.077,0.214,0.132,0.315
		c0.017,0.028,0.033,0.055,0.051,0.083c0.047,0.074,0.102,0.146,0.164,0.213c0.021,0.022,0.041,0.047,0.063,0.068
		c0.086,0.082,0.179,0.157,0.286,0.221l207.378,119.783V4615.298z M3821.69,4496l-205.231-118.546l101.038-58.333l103.341,59.603
		c0.232,0.134,0.49,0.202,0.75,0.202c0.258,0,0.517-0.068,0.749-0.202l103.403-59.628l101.069,58.363L3821.69,4496z
		 M4132.431,4436.697l-309.343,178.601v-116.641l207.498-119.914c0.463-0.269,0.75-0.764,0.75-1.3l-0.053-239.482l101.182-58.372
		L4132.431,4436.697z M4236.486,4495.076l-101.056-58.354l0.035-359.73c0-0.536-0.286-1.03-0.75-1.299
		c0-0.001-0.001-0.001-0.001-0.001l-311.524-179.923v-116.756l413.296,238.68V4495.076z"/>
	<path clip-path="url(#SVGID_2_)" fill="#1D1D1B" d="M1323.861,1852.134L907.566,1611.72c-0.463-0.268-1.036-0.269-1.5,0v-0.001
		l-416.5,240.383c-0.464,0.268-0.75,0.764-0.75,1.3l-0.057,480.933c0,0.535,0.286,1.031,0.75,1.299
		c0.232,0.134,0.492,0.201,0.75,0.201c0.259,0,0.519-0.067,0.75-0.201l103.414-59.705l311.54,179.871
		c0.231,0.134,0.491,0.201,0.75,0.201c0.258,0,0.518-0.067,0.75-0.201l311.573-179.888l103.325,59.667
		c0.232,0.134,0.491,0.202,0.75,0.202s0.518-0.068,0.75-0.202c0.464-0.267,0.75-0.762,0.75-1.298v-480.848
		C1324.611,1852.897,1324.325,1852.402,1323.861,1852.134 M906.816,1734.972l309.275,178.624l-101.045,58.292l-207.531-119.702
		c-0.015-0.008-0.03-0.012-0.045-0.02c-0.047-0.025-0.096-0.046-0.146-0.065c-0.044-0.018-0.086-0.036-0.13-0.049
		c-0.046-0.014-0.093-0.021-0.141-0.032c-0.048-0.009-0.096-0.02-0.144-0.025c-0.048-0.003-0.095-0.002-0.143-0.002
		c-0.049,0-0.096-0.001-0.144,0.002c-0.049,0.005-0.097,0.016-0.146,0.026c-0.046,0.009-0.092,0.017-0.137,0.03
		c-0.046,0.014-0.091,0.033-0.136,0.051c-0.048,0.019-0.094,0.039-0.139,0.062c-0.016,0.009-0.033,0.013-0.048,0.022
		l-207.511,119.693l-101.08-58.396L906.816,1734.972z M1011.615,2032.487l-103.299-59.705v-116.67l205.092,118.295l0.052,237.075
		l-101.095-58.379v-119.317C1012.365,2033.249,1012.08,2032.754,1011.615,2032.487 M804.174,2036.374l101.039,58.391v116.669
		l-100.896-58.192c-0.029-0.081-0.062-0.161-0.107-0.238c-0.011-0.018-0.025-0.033-0.036-0.051V2036.374z M801.923,2032.476
		c-0.464,0.268-0.749,0.763-0.749,1.299v119.252l-101.09,58.435l-0.189-236.921l205.421-118.488v116.677L801.923,2032.476z
		 M805.672,2033.775l101.099-58.421l101.08,58.422l-101.138,58.391L805.672,2033.775z M908.213,2094.765l101.152-58.398v116.736
		l-101.152,58.332V2094.765z M594.361,2274.197l-0.016-0.027h0.032L594.361,2274.197z M593.676,1912.182
		c-0.464,0.27-0.751,0.765-0.751,1.3l-0.048,359.876l-101.117,58.379l0.056-477.469l413.5-238.651v116.757L593.676,1912.182z
		 M905.213,2451.903l-309.336-178.6l0.048-357.224l100.97,58.333l0.191,239.649c0,0.013,0.004,0.025,0.004,0.038
		c0.004,0.119,0.017,0.237,0.047,0.352c0.001,0.002,0.003,0.005,0.004,0.008c0.03,0.111,0.076,0.214,0.131,0.315
		c0.015,0.029,0.033,0.055,0.05,0.083c0.048,0.075,0.102,0.146,0.164,0.213c0.021,0.022,0.041,0.047,0.063,0.068
		c0.086,0.082,0.179,0.157,0.286,0.221l207.378,119.784V2451.903z M906.816,2332.606L701.584,2214.06l101.037-58.333l103.342,59.602
		c0.232,0.134,0.491,0.202,0.75,0.202c0.258,0,0.517-0.068,0.749-0.202l103.402-59.628l101.072,58.365L906.816,2332.606z
		 M1217.557,2273.303l-309.343,178.602v-116.641l207.498-119.915c0.464-0.269,0.75-0.764,0.75-1.3l-0.053-239.483l101.183-58.372
		L1217.557,2273.303z M1321.611,2331.682l-101.055-58.354l0.035-359.73c0-0.536-0.285-1.031-0.749-1.299
		c-0.001,0-0.002-0.001-0.002-0.001l-311.524-179.923v-116.756l413.295,238.68V2331.682z"/>
	<path clip-path="url(#SVGID_2_)" fill="#1D1D1B" d="M2156.703,1851.774l-416.295-240.414c-0.463-0.268-1.035-0.269-1.5,0v-0.001
		l-416.5,240.383c-0.464,0.268-0.75,0.764-0.75,1.3l-0.056,480.933c0,0.535,0.285,1.031,0.75,1.299
		c0.231,0.134,0.491,0.201,0.75,0.201c0.258,0,0.518-0.067,0.75-0.201l103.413-59.705l311.54,179.871
		c0.232,0.134,0.491,0.201,0.75,0.201c0.258,0,0.518-0.067,0.75-0.201l311.573-179.888l103.325,59.667
		c0.232,0.134,0.491,0.202,0.75,0.202s0.518-0.068,0.75-0.202c0.464-0.267,0.75-0.762,0.75-1.298v-480.848
		C2157.453,1852.538,2157.167,1852.043,2156.703,1851.774 M1739.658,1734.612l309.275,178.624l-101.045,58.292l-207.531-119.702
		c-0.015-0.008-0.03-0.012-0.045-0.02c-0.047-0.025-0.096-0.046-0.146-0.065c-0.043-0.018-0.086-0.036-0.13-0.049
		c-0.046-0.014-0.093-0.021-0.14-0.032c-0.049-0.009-0.097-0.02-0.145-0.024s-0.095-0.003-0.143-0.003
		c-0.048,0-0.096-0.001-0.144,0.003c-0.048,0.004-0.097,0.015-0.146,0.025c-0.046,0.009-0.092,0.017-0.137,0.03
		c-0.046,0.014-0.091,0.033-0.136,0.051c-0.047,0.019-0.094,0.039-0.139,0.062c-0.016,0.009-0.033,0.013-0.048,0.022
		l-207.511,119.693l-101.079-58.396L1739.658,1734.612z M1844.458,2032.128l-103.3-59.705v-116.67l205.092,118.295l0.052,237.075
		l-101.095-58.379v-119.317C1845.207,2032.89,1844.921,2032.395,1844.458,2032.128 M1637.016,2036.015l101.039,58.391v116.669
		l-100.896-58.192c-0.029-0.081-0.062-0.161-0.107-0.238c-0.01-0.018-0.025-0.033-0.036-0.051V2036.015z M1634.765,2032.117
		c-0.464,0.268-0.749,0.763-0.749,1.299v119.252l-101.09,58.435l-0.189-236.921l205.421-118.488v116.677L1634.765,2032.117z
		 M1638.514,2033.416l101.099-58.421l101.08,58.423l-101.138,58.39L1638.514,2033.416z M1741.055,2094.407l101.152-58.399v116.735
		l-101.152,58.332V2094.407z M1427.203,2273.838l-0.016-0.027h0.032L1427.203,2273.838z M1426.518,1911.822
		c-0.464,0.27-0.75,0.765-0.75,1.3l-0.049,359.876l-101.117,58.379l0.056-477.469l413.5-238.651v116.757L1426.518,1911.822z
		 M1738.055,2451.544l-309.336-178.6l0.048-357.224l100.97,58.333l0.191,239.649c0,0.013,0.004,0.025,0.005,0.038
		c0.003,0.119,0.016,0.237,0.046,0.352c0.001,0.002,0.003,0.005,0.004,0.008c0.03,0.111,0.077,0.214,0.131,0.316
		c0.015,0.027,0.033,0.054,0.051,0.082c0.047,0.076,0.102,0.146,0.163,0.213c0.021,0.022,0.041,0.047,0.064,0.068
		c0.085,0.082,0.178,0.158,0.285,0.221l207.378,119.784V2451.544z M1739.658,2332.247l-205.232-118.545l101.037-58.334
		l103.342,59.602c0.232,0.134,0.491,0.202,0.75,0.202c0.258,0,0.517-0.068,0.749-0.202l103.403-59.628l101.071,58.365
		L1739.658,2332.247z M2050.398,2272.943l-309.343,178.602v-116.641l207.498-119.915c0.464-0.269,0.75-0.764,0.75-1.3
		l-0.053-239.483l101.183-58.372L2050.398,2272.943z M2154.453,2331.322l-101.055-58.354l0.035-359.73
		c0-0.536-0.285-1.031-0.749-1.299c-0.001,0-0.002-0.001-0.002-0.001l-311.523-179.923v-116.756l413.295,238.68V2331.322z"/>
	<path clip-path="url(#SVGID_2_)" fill="#1D1D1B" d="M2989.555,1852.134L2573.26,1611.72c-0.464-0.268-1.036-0.269-1.5,0v-0.001
		l-416.5,240.383c-0.464,0.268-0.75,0.764-0.75,1.3l-0.057,480.933c0,0.535,0.286,1.031,0.75,1.299
		c0.232,0.134,0.491,0.201,0.75,0.201s0.518-0.067,0.75-0.201l103.414-59.705l311.539,179.871c0.232,0.134,0.491,0.201,0.75,0.201
		c0.259,0,0.518-0.067,0.75-0.201l311.574-179.888l103.324,59.667c0.231,0.134,0.49,0.202,0.75,0.202
		c0.258,0,0.519-0.068,0.75-0.202c0.463-0.267,0.75-0.762,0.75-1.298v-480.848
		C2990.305,1852.897,2990.02,1852.402,2989.555,1852.134 M2572.509,1734.972l309.275,178.624l-101.045,58.292l-207.531-119.702
		c-0.014-0.008-0.029-0.012-0.044-0.02c-0.048-0.025-0.097-0.046-0.147-0.065c-0.043-0.018-0.086-0.036-0.13-0.049
		c-0.046-0.014-0.093-0.021-0.14-0.032c-0.048-0.009-0.096-0.02-0.145-0.025c-0.048-0.003-0.095-0.002-0.143-0.002
		s-0.095-0.001-0.143,0.002c-0.049,0.005-0.098,0.016-0.146,0.026c-0.047,0.009-0.093,0.017-0.138,0.03
		c-0.046,0.014-0.091,0.033-0.136,0.051c-0.047,0.019-0.094,0.039-0.139,0.062c-0.015,0.009-0.033,0.013-0.048,0.022
		l-207.51,119.693l-101.08-58.396L2572.509,1734.972z M2677.309,2032.487l-103.299-59.705v-116.67l205.092,118.295l0.053,237.075
		l-101.096-58.379v-119.317C2678.059,2033.249,2677.773,2032.754,2677.309,2032.487 M2469.867,2036.374l101.039,58.391v116.669
		l-100.896-58.192c-0.029-0.081-0.063-0.161-0.106-0.238c-0.011-0.018-0.026-0.033-0.037-0.051V2036.374z M2467.617,2032.476
		c-0.464,0.268-0.75,0.763-0.75,1.299v119.252l-101.09,58.435l-0.189-236.921l205.422-118.488v116.677L2467.617,2032.476z
		 M2471.365,2033.775l101.1-58.421l101.08,58.422l-101.138,58.391L2471.365,2033.775z M2573.906,2094.765l101.152-58.398v116.736
		l-101.152,58.332V2094.765z M2260.054,2274.197l-0.015-0.027h0.031L2260.054,2274.197z M2259.369,1912.182
		c-0.464,0.27-0.75,0.765-0.75,1.3l-0.049,359.876l-101.117,58.379l0.057-477.469l413.5-238.651v116.757L2259.369,1912.182z
		 M2570.906,2451.903l-309.336-178.6l0.048-357.224l100.97,58.333l0.191,239.649c0,0.013,0.004,0.025,0.005,0.038
		c0.003,0.119,0.016,0.237,0.047,0.352c0.001,0.002,0.002,0.005,0.003,0.008c0.031,0.111,0.077,0.214,0.131,0.315
		c0.017,0.029,0.034,0.055,0.051,0.083c0.048,0.075,0.102,0.146,0.163,0.213c0.021,0.022,0.042,0.047,0.064,0.068
		c0.085,0.082,0.178,0.157,0.286,0.221l207.377,119.784V2451.903z M2572.51,2332.606l-205.231-118.546l101.037-58.333
		l103.342,59.602c0.231,0.134,0.49,0.202,0.749,0.202c0.259,0,0.518-0.068,0.75-0.202l103.402-59.628l101.07,58.365
		L2572.51,2332.606z M2883.249,2273.303l-309.343,178.602v-116.641l207.499-119.915c0.463-0.269,0.749-0.764,0.749-1.3
		l-0.053-239.483l101.183-58.372L2883.249,2273.303z M2987.305,2331.682l-101.056-58.354l0.035-359.73
		c0-0.536-0.285-1.031-0.749-1.299c-0.001,0-0.001-0.001-0.002-0.001l-311.523-179.923v-116.756l413.295,238.68V2331.682z"/>
	<path clip-path="url(#SVGID_2_)" fill="#1D1D1B" d="M3822.396,1851.774l-416.296-240.414c-0.463-0.268-1.034-0.269-1.499,0
		l-0.001-0.001l-416.5,240.383c-0.464,0.268-0.75,0.764-0.75,1.3l-0.057,480.933c0,0.535,0.287,1.031,0.75,1.299
		c0.233,0.134,0.492,0.201,0.75,0.201c0.259,0,0.519-0.067,0.75-0.201l103.415-59.705l311.539,179.871
		c0.232,0.134,0.49,0.201,0.75,0.201c0.258,0,0.518-0.067,0.75-0.201l311.574-179.888l103.324,59.667
		c0.231,0.134,0.49,0.202,0.75,0.202c0.258,0,0.519-0.068,0.75-0.202c0.463-0.267,0.75-0.762,0.75-1.298v-480.848
		C3823.146,1852.538,3822.861,1852.043,3822.396,1851.774 M3405.351,1734.612l309.275,178.624l-101.044,58.292l-207.532-119.702
		c-0.014-0.008-0.03-0.012-0.045-0.02c-0.046-0.025-0.095-0.046-0.146-0.065c-0.043-0.018-0.086-0.036-0.131-0.049
		c-0.046-0.014-0.093-0.021-0.14-0.032c-0.048-0.009-0.096-0.02-0.144-0.024c-0.049-0.004-0.097-0.003-0.145-0.003
		s-0.095-0.001-0.143,0.003c-0.049,0.004-0.098,0.015-0.146,0.025c-0.047,0.009-0.093,0.017-0.137,0.03
		c-0.047,0.014-0.091,0.033-0.137,0.051c-0.047,0.019-0.095,0.039-0.14,0.062c-0.015,0.009-0.032,0.013-0.048,0.022l-207.51,119.693
		l-101.081-58.396L3405.351,1734.612z M3510.15,2032.128l-103.3-59.705v-116.67l205.093,118.295l0.053,237.075l-101.096-58.379
		v-119.317C3510.9,2032.89,3510.615,2032.395,3510.15,2032.128 M3302.709,2036.015l101.039,58.391v116.669l-100.896-58.192
		c-0.029-0.081-0.063-0.161-0.106-0.238c-0.012-0.018-0.026-0.033-0.037-0.051V2036.015z M3300.459,2032.117
		c-0.464,0.268-0.75,0.763-0.75,1.299v119.252l-101.09,58.435l-0.189-236.921l205.421-118.488v116.677L3300.459,2032.117z
		 M3304.207,2033.416l101.099-58.421l101.08,58.423l-101.137,58.39L3304.207,2033.416z M3406.748,2094.407l101.152-58.399v116.735
		l-101.152,58.332V2094.407z M3092.896,2273.838l-0.016-0.027h0.031L3092.896,2273.838z M3092.211,1911.822
		c-0.464,0.27-0.751,0.765-0.751,1.3l-0.048,359.876l-101.117,58.379l0.056-477.469l413.5-238.651v116.757L3092.211,1911.822z
		 M3403.748,2451.544l-309.336-178.6l0.048-357.224l100.97,58.333l0.191,239.649c0,0.013,0.004,0.025,0.005,0.038
		c0.003,0.119,0.016,0.237,0.047,0.352c0,0.002,0.002,0.005,0.003,0.008c0.031,0.111,0.076,0.214,0.131,0.316
		c0.017,0.027,0.033,0.054,0.051,0.082c0.049,0.076,0.103,0.146,0.164,0.213c0.021,0.022,0.041,0.047,0.063,0.068
		c0.085,0.082,0.178,0.158,0.286,0.221l207.377,119.784V2451.544z M3405.351,2332.247l-205.23-118.545l101.037-58.334
		l103.342,59.602c0.231,0.134,0.489,0.202,0.749,0.202c0.258,0,0.517-0.068,0.75-0.202l103.402-59.628l101.07,58.365
		L3405.351,2332.247z M3716.091,2272.943l-309.343,178.602v-116.641l207.499-119.915c0.463-0.269,0.749-0.764,0.749-1.3
		l-0.053-239.483l101.183-58.372L3716.091,2272.943z M3820.146,2331.322l-101.056-58.354l0.035-359.73
		c0-0.536-0.285-1.031-0.749-1.299c-0.001,0-0.001-0.001-0.002-0.001l-311.524-179.923v-116.756l413.296,238.68V2331.322z"/>
	<path clip-path="url(#SVGID_2_)" fill="#1D1D1B" d="M4655.416,1851.772l-416.296-240.414c-0.463-0.268-1.034-0.269-1.5-0.001
		l-416.5,240.383c-0.464,0.268-0.75,0.764-0.75,1.3l-0.057,480.933c0,0.535,0.287,1.031,0.75,1.299
		c0.233,0.134,0.492,0.201,0.75,0.201c0.259,0,0.519-0.067,0.75-0.201l103.415-59.705l311.539,179.871
		c0.232,0.134,0.49,0.201,0.75,0.201c0.258,0,0.518-0.067,0.75-0.201l311.572-179.888l103.326,59.667
		c0.231,0.134,0.49,0.202,0.75,0.202c0.258,0,0.518-0.068,0.75-0.202c0.463-0.267,0.75-0.762,0.75-1.298v-480.848
		C4656.166,1852.536,4655.881,1852.041,4655.416,1851.772 M4238.37,1734.61l309.275,178.624l-101.046,58.292l-207.53-119.702
		c-0.015-0.008-0.03-0.012-0.045-0.02c-0.047-0.025-0.097-0.046-0.146-0.066c-0.043-0.018-0.086-0.035-0.131-0.048
		c-0.046-0.015-0.093-0.021-0.141-0.032c-0.047-0.01-0.096-0.02-0.145-0.025c-0.047-0.004-0.095-0.002-0.143-0.003
		c-0.049,0.001-0.096-0.001-0.143,0.003c-0.049,0.005-0.099,0.016-0.147,0.025c-0.046,0.01-0.092,0.017-0.138,0.031
		c-0.045,0.014-0.09,0.032-0.135,0.051c-0.047,0.019-0.095,0.039-0.14,0.062c-0.015,0.009-0.032,0.013-0.048,0.022l-207.51,119.693
		l-101.081-58.397L4238.37,1734.61z M4343.17,2032.126l-103.3-59.705v-116.67l205.093,118.295l0.053,237.075l-101.096-58.379
		v-119.317C4343.92,2032.888,4343.635,2032.393,4343.17,2032.126 M4135.729,2036.012l101.039,58.392v116.669l-100.896-58.192
		c-0.029-0.081-0.063-0.162-0.105-0.238c-0.012-0.018-0.026-0.033-0.037-0.051V2036.012z M4133.479,2032.115
		c-0.465,0.268-0.75,0.763-0.75,1.299v119.252l-101.09,58.435l-0.189-236.921l205.421-118.488v116.677L4133.479,2032.115z
		 M4137.227,2033.414l101.099-58.421l101.08,58.422l-101.138,58.391L4137.227,2033.414z M4239.768,2094.403l101.152-58.398v116.736
		l-101.152,58.332V2094.403z M3925.916,2273.836l-0.017-0.027h0.032L3925.916,2273.836z M3925.23,1911.82
		c-0.464,0.27-0.751,0.765-0.751,1.3l-0.048,359.876l-101.117,58.379l0.056-477.469l413.5-238.651v116.756L3925.23,1911.82z
		 M4236.768,2451.542l-309.336-178.6l0.048-357.224l100.97,58.333l0.191,239.649c0,0.013,0.004,0.024,0.004,0.038
		c0.004,0.119,0.017,0.237,0.047,0.352c0.001,0.002,0.003,0.005,0.004,0.008c0.031,0.11,0.076,0.214,0.131,0.315
		c0.017,0.029,0.033,0.055,0.051,0.083c0.049,0.075,0.102,0.146,0.164,0.213c0.021,0.022,0.041,0.047,0.063,0.068
		c0.086,0.082,0.179,0.157,0.287,0.221l207.377,119.784V2451.542z M4238.37,2332.245l-205.23-118.546l101.036-58.333l103.342,59.602
		c0.232,0.134,0.49,0.202,0.75,0.202c0.258,0,0.517-0.068,0.75-0.202l103.402-59.628l101.07,58.364L4238.37,2332.245z
		 M4549.11,2272.941l-309.343,178.601v-116.641l207.498-119.914c0.464-0.269,0.75-0.764,0.75-1.3l-0.053-239.483l101.183-58.372
		L4549.11,2272.941z M4653.166,2331.32l-101.056-58.354l0.035-359.73c0-0.536-0.285-1.031-0.749-1.299
		c-0.001-0.001-0.002-0.001-0.002-0.001l-311.524-179.923v-116.756l413.296,238.68V2331.32z"/>
	<path clip-path="url(#SVGID_2_)" fill="#1D1D1B" d="M1323.861,3294.44l-416.295-240.414c-0.463-0.268-1.036-0.269-1.5,0
		l-416.5,240.384c-0.464,0.267-0.75,0.763-0.75,1.299l-0.057,480.933c0,0.536,0.286,1.032,0.75,1.299
		c0.232,0.135,0.492,0.201,0.75,0.201c0.259,0,0.519-0.066,0.75-0.201l103.414-59.705l311.54,179.871
		c0.231,0.135,0.491,0.201,0.75,0.201c0.258,0,0.518-0.066,0.75-0.201l311.573-179.887l103.325,59.666
		c0.232,0.135,0.491,0.202,0.75,0.202s0.518-0.067,0.75-0.202c0.464-0.268,0.75-0.762,0.75-1.298v-480.849
		C1324.611,3295.205,1324.325,3294.709,1323.861,3294.44 M906.816,3177.279l309.275,178.624l-101.045,58.292l-207.531-119.701
		c-0.015-0.01-0.03-0.014-0.045-0.021c-0.047-0.025-0.096-0.046-0.146-0.066c-0.044-0.018-0.086-0.034-0.13-0.049
		c-0.046-0.014-0.093-0.021-0.141-0.03c-0.048-0.011-0.096-0.021-0.144-0.025c-0.048-0.004-0.095-0.003-0.143-0.003
		c-0.049,0-0.096-0.001-0.144,0.003c-0.049,0.005-0.097,0.015-0.146,0.025c-0.046,0.01-0.092,0.017-0.137,0.03
		c-0.046,0.015-0.091,0.032-0.136,0.052c-0.048,0.019-0.094,0.037-0.139,0.062c-0.016,0.008-0.033,0.013-0.048,0.022
		l-207.511,119.692l-101.08-58.397L906.816,3177.279z M1011.615,3474.794l-103.299-59.704v-116.67l205.092,118.295l0.052,237.075
		l-101.095-58.38v-119.318C1012.365,3475.557,1012.08,3475.062,1011.615,3474.794 M804.174,3478.681l101.039,58.392v116.669
		l-100.896-58.191c-0.029-0.082-0.062-0.162-0.107-0.239c-0.011-0.018-0.025-0.032-0.036-0.051V3478.681z M801.923,3474.782
		c-0.464,0.269-0.749,0.765-0.749,1.3v119.252l-101.09,58.435l-0.189-236.921l205.421-118.487v116.677L801.923,3474.782z
		 M805.672,3476.082l101.099-58.422l101.08,58.424l-101.138,58.391L805.672,3476.082z M908.213,3537.072l101.152-58.398v116.736
		l-101.152,58.331V3537.072z M594.361,3716.505l-0.016-0.028h0.032L594.361,3716.505z M593.676,3354.489
		c-0.464,0.269-0.751,0.764-0.751,1.3l-0.048,359.877l-101.117,58.379l0.056-477.471l413.5-238.649v116.756L593.676,3354.489z
		 M905.213,3894.211l-309.336-178.6l0.048-357.225l100.97,58.334l0.191,239.648c0,0.014,0.004,0.024,0.004,0.038
		c0.004,0.119,0.017,0.237,0.047,0.352c0.001,0.003,0.003,0.006,0.004,0.009c0.03,0.11,0.076,0.214,0.131,0.315
		c0.015,0.027,0.033,0.055,0.05,0.083c0.048,0.074,0.102,0.145,0.164,0.213c0.021,0.022,0.041,0.046,0.063,0.067
		c0.086,0.082,0.179,0.158,0.286,0.221l207.378,119.784V3894.211z M906.816,3774.912l-205.232-118.545l101.037-58.332
		l103.342,59.602c0.232,0.134,0.491,0.201,0.75,0.201c0.258,0,0.517-0.067,0.749-0.201l103.402-59.629l101.072,58.365
		L906.816,3774.912z M1217.557,3715.609l-309.343,178.602V3777.57l207.498-119.915c0.464-0.268,0.75-0.763,0.75-1.299
		l-0.053-239.482l101.183-58.372L1217.557,3715.609z M1321.611,3773.989l-101.055-58.354l0.035-359.731
		c0-0.534-0.285-1.029-0.749-1.299h-0.002l-311.524-179.923v-116.757l413.295,238.681V3773.989z"/>
	<path clip-path="url(#SVGID_2_)" fill="#1D1D1B" d="M2156.703,3294.081l-416.295-240.414c-0.463-0.268-1.035-0.269-1.5,0
		l-416.5,240.384c-0.464,0.267-0.75,0.763-0.75,1.299l-0.056,480.933c0,0.536,0.285,1.032,0.75,1.299
		c0.231,0.135,0.491,0.201,0.75,0.201c0.258,0,0.518-0.066,0.75-0.201l103.413-59.705l311.54,179.871
		c0.232,0.135,0.491,0.201,0.75,0.201c0.258,0,0.518-0.066,0.75-0.201l311.573-179.887l103.325,59.666
		c0.232,0.135,0.491,0.202,0.75,0.202s0.518-0.067,0.75-0.202c0.464-0.268,0.75-0.762,0.75-1.298V3295.38
		C2157.453,3294.846,2157.167,3294.35,2156.703,3294.081 M1739.658,3176.92l309.275,178.624l-101.045,58.292l-207.531-119.701
		c-0.015-0.009-0.03-0.013-0.045-0.021c-0.047-0.025-0.096-0.046-0.146-0.066c-0.043-0.018-0.086-0.034-0.13-0.049
		c-0.046-0.014-0.093-0.021-0.14-0.03c-0.049-0.011-0.097-0.021-0.145-0.025c-0.048-0.004-0.095-0.003-0.143-0.003
		c-0.048,0-0.096-0.001-0.144,0.003c-0.048,0.005-0.097,0.015-0.146,0.025c-0.046,0.01-0.092,0.017-0.137,0.03
		c-0.046,0.015-0.091,0.032-0.136,0.052c-0.047,0.019-0.094,0.037-0.139,0.062c-0.016,0.008-0.033,0.013-0.048,0.022
		l-207.511,119.692l-101.079-58.397L1739.658,3176.92z M1844.458,3474.435l-103.3-59.704v-116.67l205.092,118.295l0.052,237.075
		l-101.095-58.38v-119.318C1845.207,3475.197,1844.921,3474.702,1844.458,3474.435 M1637.016,3478.321l101.039,58.392v116.669
		l-100.896-58.191c-0.029-0.082-0.062-0.162-0.107-0.239c-0.01-0.017-0.025-0.032-0.036-0.051V3478.321z M1634.765,3474.423
		c-0.464,0.269-0.749,0.765-0.749,1.3v119.252l-101.09,58.435l-0.189-236.921l205.421-118.487v116.677L1634.765,3474.423z
		 M1638.514,3475.724l101.099-58.423l101.08,58.424l-101.138,58.391L1638.514,3475.724z M1741.055,3536.713l101.152-58.398v116.736
		l-101.152,58.331V3536.713z M1427.203,3716.146l-0.016-0.028h0.032L1427.203,3716.146z M1426.518,3354.13
		c-0.464,0.269-0.75,0.764-0.75,1.3l-0.049,359.877l-101.117,58.379l0.056-477.471l413.5-238.649v116.756L1426.518,3354.13z
		 M1738.055,3893.852l-309.336-178.6l0.048-357.225l100.97,58.334l0.191,239.648c0,0.014,0.004,0.024,0.005,0.038
		c0.003,0.119,0.016,0.237,0.046,0.352c0.001,0.003,0.003,0.006,0.004,0.009c0.03,0.11,0.077,0.214,0.131,0.315
		c0.015,0.027,0.033,0.055,0.051,0.083c0.047,0.074,0.102,0.145,0.163,0.213c0.021,0.022,0.041,0.046,0.064,0.068
		c0.085,0.081,0.178,0.157,0.285,0.22l207.378,119.784V3893.852z M1739.658,3774.553l-205.232-118.545l101.037-58.332
		l103.342,59.602c0.232,0.134,0.491,0.201,0.75,0.201c0.258,0,0.517-0.067,0.749-0.201l103.403-59.629l101.071,58.365
		L1739.658,3774.553z M2050.398,3715.25l-309.343,178.602v-116.641l207.498-119.915c0.464-0.268,0.75-0.763,0.75-1.299
		l-0.053-239.482l101.183-58.372L2050.398,3715.25z M2154.453,3773.63l-101.055-58.354l0.035-359.731
		c0-0.534-0.285-1.029-0.749-1.299h-0.002l-311.523-179.923v-116.757l413.295,238.681V3773.63z"/>
	<path clip-path="url(#SVGID_2_)" fill="#1D1D1B" d="M2989.555,3294.44l-416.295-240.414c-0.464-0.268-1.036-0.269-1.5,0
		l-416.5,240.384c-0.464,0.267-0.75,0.763-0.75,1.299l-0.057,480.933c0,0.536,0.286,1.032,0.75,1.299
		c0.232,0.135,0.491,0.201,0.75,0.201s0.518-0.066,0.75-0.201l103.414-59.705l311.539,179.871c0.232,0.135,0.491,0.201,0.75,0.201
		c0.259,0,0.518-0.066,0.75-0.201l311.574-179.887l103.324,59.666c0.231,0.135,0.49,0.202,0.75,0.202
		c0.258,0,0.519-0.067,0.75-0.202c0.463-0.268,0.75-0.762,0.75-1.298v-480.849C2990.305,3295.205,2990.02,3294.709,2989.555,3294.44
		 M2572.509,3177.279l309.275,178.624l-101.045,58.292l-207.531-119.701c-0.014-0.01-0.029-0.014-0.044-0.021
		c-0.048-0.025-0.097-0.046-0.147-0.066c-0.043-0.018-0.086-0.034-0.13-0.049c-0.046-0.014-0.093-0.021-0.14-0.03
		c-0.048-0.011-0.096-0.021-0.145-0.025c-0.048-0.004-0.095-0.003-0.143-0.003s-0.095-0.001-0.143,0.003
		c-0.049,0.005-0.098,0.015-0.146,0.025c-0.047,0.01-0.093,0.017-0.138,0.03c-0.046,0.015-0.091,0.032-0.136,0.052
		c-0.047,0.019-0.094,0.037-0.139,0.062c-0.015,0.008-0.033,0.013-0.048,0.022l-207.51,119.692l-101.08-58.397L2572.509,3177.279z
		 M2677.309,3474.794l-103.299-59.704v-116.67l205.092,118.295l0.053,237.075l-101.096-58.38v-119.318
		C2678.059,3475.557,2677.773,3475.062,2677.309,3474.794 M2469.867,3478.681l101.039,58.392v116.669l-100.896-58.191
		c-0.029-0.082-0.063-0.162-0.106-0.239c-0.011-0.018-0.026-0.032-0.037-0.051V3478.681z M2467.617,3474.782
		c-0.464,0.269-0.75,0.765-0.75,1.3v119.252l-101.09,58.435l-0.189-236.921l205.422-118.487v116.677L2467.617,3474.782z
		 M2471.365,3476.082l101.1-58.422l101.08,58.424l-101.138,58.391L2471.365,3476.082z M2573.906,3537.072l101.152-58.398v116.736
		l-101.152,58.331V3537.072z M2260.054,3716.505l-0.015-0.028h0.031L2260.054,3716.505z M2259.369,3354.489
		c-0.464,0.269-0.75,0.764-0.75,1.3l-0.049,359.877l-101.117,58.379l0.057-477.471l413.5-238.649v116.756L2259.369,3354.489z
		 M2570.906,3894.211l-309.336-178.6l0.048-357.225l100.97,58.334l0.191,239.648c0,0.014,0.004,0.024,0.005,0.038
		c0.003,0.119,0.016,0.237,0.047,0.352c0.001,0.003,0.002,0.006,0.003,0.009c0.031,0.11,0.077,0.214,0.131,0.315
		c0.017,0.027,0.034,0.055,0.051,0.083c0.048,0.074,0.102,0.145,0.163,0.213c0.021,0.022,0.042,0.046,0.064,0.067
		c0.085,0.082,0.178,0.158,0.286,0.221l207.377,119.784V3894.211z M2572.51,3774.912l-205.231-118.545l101.037-58.332
		l103.342,59.602c0.231,0.134,0.49,0.201,0.749,0.201c0.259,0,0.518-0.067,0.75-0.201l103.402-59.629l101.07,58.365
		L2572.51,3774.912z M2883.249,3715.609l-309.343,178.602V3777.57l207.499-119.915c0.463-0.268,0.749-0.763,0.749-1.299
		l-0.053-239.482l101.183-58.372L2883.249,3715.609z M2987.305,3773.989l-101.056-58.354l0.035-359.731
		c0-0.534-0.285-1.029-0.749-1.299h-0.002l-311.523-179.923v-116.757l413.295,238.681V3773.989z"/>
	<path clip-path="url(#SVGID_2_)" fill="#1D1D1B" d="M3822.396,3294.081l-416.296-240.414c-0.463-0.268-1.034-0.269-1.499,0h-0.001
		l-416.5,240.384c-0.464,0.267-0.75,0.763-0.75,1.299l-0.057,480.933c0,0.536,0.287,1.032,0.75,1.299
		c0.233,0.135,0.492,0.201,0.75,0.201c0.259,0,0.519-0.066,0.75-0.201l103.415-59.705l311.539,179.871
		c0.232,0.135,0.49,0.201,0.75,0.201c0.258,0,0.518-0.066,0.75-0.201l311.574-179.887l103.324,59.666
		c0.231,0.135,0.49,0.202,0.75,0.202c0.258,0,0.519-0.067,0.75-0.202c0.463-0.268,0.75-0.762,0.75-1.298V3295.38
		C3823.146,3294.846,3822.861,3294.35,3822.396,3294.081 M3405.351,3176.92l309.275,178.624l-101.044,58.292l-207.532-119.701
		c-0.014-0.009-0.03-0.013-0.045-0.021c-0.046-0.025-0.095-0.046-0.146-0.066c-0.043-0.018-0.086-0.034-0.131-0.049
		c-0.046-0.014-0.093-0.021-0.14-0.03c-0.048-0.011-0.096-0.021-0.144-0.025c-0.049-0.004-0.097-0.003-0.145-0.003
		s-0.095-0.001-0.143,0.003c-0.049,0.005-0.098,0.015-0.146,0.025c-0.047,0.01-0.093,0.017-0.137,0.03
		c-0.047,0.015-0.091,0.032-0.137,0.052c-0.047,0.019-0.095,0.037-0.14,0.062c-0.015,0.008-0.032,0.013-0.048,0.022l-207.51,119.692
		l-101.081-58.397L3405.351,3176.92z M3510.15,3474.435l-103.3-59.704v-116.67l205.093,118.295l0.053,237.075l-101.096-58.38
		v-119.318C3510.9,3475.197,3510.615,3474.702,3510.15,3474.435 M3302.709,3478.321l101.039,58.392v116.669l-100.896-58.191
		c-0.029-0.082-0.063-0.162-0.106-0.239c-0.012-0.017-0.026-0.032-0.037-0.051V3478.321z M3300.459,3474.423
		c-0.464,0.269-0.75,0.765-0.75,1.3v119.252l-101.09,58.435l-0.189-236.921l205.421-118.487v116.677L3300.459,3474.423z
		 M3304.207,3475.724l101.099-58.423l101.08,58.424l-101.137,58.391L3304.207,3475.724z M3406.748,3536.713l101.152-58.398v116.736
		l-101.152,58.331V3536.713z M3092.896,3716.146l-0.016-0.028h0.031L3092.896,3716.146z M3092.211,3354.13
		c-0.464,0.269-0.751,0.764-0.751,1.3l-0.048,359.877l-101.117,58.379l0.056-477.471l413.5-238.649v116.756L3092.211,3354.13z
		 M3403.748,3893.852l-309.336-178.6l0.048-357.225l100.97,58.334l0.191,239.648c0,0.014,0.004,0.024,0.005,0.038
		c0.003,0.119,0.016,0.237,0.047,0.352c0,0.003,0.002,0.006,0.003,0.009c0.031,0.11,0.076,0.214,0.131,0.315
		c0.017,0.027,0.033,0.055,0.051,0.083c0.049,0.074,0.103,0.145,0.164,0.213c0.021,0.022,0.041,0.046,0.063,0.068
		c0.085,0.081,0.178,0.157,0.286,0.22l207.377,119.784V3893.852z M3405.351,3774.553l-205.23-118.545l101.037-58.332l103.342,59.602
		c0.231,0.134,0.489,0.201,0.749,0.201c0.258,0,0.517-0.067,0.75-0.201l103.402-59.629l101.07,58.365L3405.351,3774.553z
		 M3716.091,3715.25l-309.343,178.602v-116.641l207.499-119.915c0.463-0.268,0.749-0.763,0.749-1.299l-0.053-239.482l101.183-58.372
		L3716.091,3715.25z M3820.146,3773.63l-101.056-58.354l0.035-359.731c0-0.534-0.285-1.029-0.749-1.299h-0.002l-311.524-179.923
		v-116.757l413.296,238.681V3773.63z"/>
	<path clip-path="url(#SVGID_2_)" fill="#1D1D1B" d="M4655.416,3294.079l-416.296-240.414c-0.463-0.268-1.034-0.269-1.5,0
		l-416.5,240.384c-0.464,0.267-0.75,0.763-0.75,1.299l-0.057,480.933c0,0.536,0.287,1.032,0.75,1.299
		c0.233,0.136,0.492,0.201,0.75,0.201c0.259,0,0.519-0.065,0.75-0.201l103.415-59.705l311.539,179.871
		c0.232,0.135,0.49,0.201,0.75,0.201c0.258,0,0.518-0.066,0.75-0.201l311.572-179.888l103.326,59.667
		c0.231,0.135,0.49,0.202,0.75,0.202c0.258,0,0.518-0.067,0.75-0.202c0.463-0.267,0.75-0.762,0.75-1.298v-480.849
		C4656.166,3294.844,4655.881,3294.348,4655.416,3294.079 M4238.37,3176.918l309.275,178.623l-101.046,58.292l-207.53-119.7
		c-0.015-0.01-0.03-0.014-0.045-0.021c-0.047-0.025-0.097-0.046-0.146-0.064c-0.043-0.019-0.086-0.035-0.131-0.05
		c-0.046-0.014-0.093-0.021-0.141-0.03c-0.047-0.011-0.096-0.021-0.145-0.025c-0.047-0.004-0.095-0.003-0.143-0.003
		c-0.049,0-0.096-0.001-0.143,0.003c-0.049,0.005-0.099,0.015-0.147,0.025c-0.046,0.009-0.092,0.017-0.138,0.03
		c-0.045,0.015-0.09,0.032-0.135,0.052c-0.047,0.018-0.095,0.037-0.14,0.062c-0.015,0.008-0.032,0.013-0.048,0.022l-207.51,119.691
		l-101.081-58.396L4238.37,3176.918z M4343.17,3474.433l-103.3-59.705v-116.67l205.093,118.296l0.053,237.074l-101.096-58.379
		V3475.73C4343.92,3475.195,4343.635,3474.7,4343.17,3474.433 M4135.729,3478.319l101.039,58.392v116.668l-100.896-58.19
		c-0.029-0.082-0.063-0.162-0.105-0.239c-0.012-0.018-0.026-0.033-0.037-0.051V3478.319z M4133.479,3474.422
		c-0.465,0.268-0.75,0.764-0.75,1.299v119.252l-101.09,58.435l-0.189-236.921l205.421-118.488v116.678L4133.479,3474.422z
		 M4137.227,3475.721l101.099-58.422l101.08,58.424l-101.138,58.39L4137.227,3475.721z M4239.768,3536.711l101.152-58.398v116.736
		l-101.152,58.33V3536.711z M3925.916,3716.144l-0.017-0.028h0.032L3925.916,3716.144z M3925.23,3354.128
		c-0.464,0.269-0.751,0.764-0.751,1.3l-0.048,359.876l-101.117,58.38l0.056-477.471l413.5-238.65v116.757L3925.23,3354.128z
		 M4236.768,3893.85l-309.336-178.6l0.048-357.225l100.97,58.333l0.191,239.649c0,0.014,0.004,0.024,0.004,0.037
		c0.004,0.119,0.017,0.237,0.047,0.353c0.001,0.003,0.003,0.005,0.004,0.009c0.031,0.11,0.076,0.214,0.131,0.315
		c0.017,0.027,0.033,0.054,0.051,0.082c0.049,0.075,0.102,0.146,0.164,0.214c0.021,0.021,0.041,0.046,0.063,0.067
		c0.086,0.082,0.179,0.158,0.287,0.221l207.377,119.784V3893.85z M4238.37,3774.552l-205.23-118.546l101.036-58.332l103.342,59.602
		c0.232,0.134,0.49,0.201,0.75,0.201c0.258,0,0.517-0.067,0.75-0.201l103.402-59.629l101.07,58.365L4238.37,3774.552z
		 M4549.11,3715.248l-309.343,178.602v-116.641l207.498-119.915c0.464-0.268,0.75-0.763,0.75-1.299l-0.053-239.483l101.183-58.371
		L4549.11,3715.248z M4653.166,3773.628l-101.056-58.355l0.035-359.73c0-0.534-0.285-1.029-0.749-1.299
		c-0.001,0-0.002,0-0.002-0.001L4239.87,3174.32v-116.757l413.296,238.681V3773.628z"/>
	<path clip-path="url(#SVGID_2_)" fill="#1D1D1B" d="M907.269,2573.332l-416.295-240.414c-0.463-0.267-1.036-0.268-1.5,0
		l-416.5,240.383c-0.464,0.269-0.75,0.764-0.75,1.299l-0.057,480.934c0,0.536,0.286,1.032,0.75,1.299
		c0.232,0.135,0.492,0.201,0.75,0.201c0.259,0,0.519-0.066,0.75-0.201l103.414-59.705l311.54,179.871
		c0.231,0.135,0.491,0.201,0.75,0.201c0.258,0,0.518-0.066,0.75-0.201l311.573-179.887l103.325,59.666
		c0.232,0.135,0.491,0.202,0.75,0.202c0.259,0,0.518-0.067,0.75-0.202c0.464-0.268,0.75-0.762,0.75-1.298v-480.849
		C908.019,2574.096,907.732,2573.6,907.269,2573.332 M490.224,2456.171l309.275,178.623l-101.045,58.293l-207.531-119.702
		c-0.015-0.009-0.03-0.013-0.045-0.021c-0.047-0.025-0.096-0.045-0.146-0.065c-0.044-0.018-0.086-0.035-0.13-0.049
		c-0.046-0.014-0.093-0.021-0.141-0.031c-0.048-0.01-0.096-0.02-0.144-0.024c-0.048-0.004-0.095-0.003-0.143-0.003
		c-0.049,0-0.096-0.001-0.144,0.003c-0.049,0.005-0.097,0.015-0.146,0.024c-0.046,0.011-0.092,0.018-0.137,0.031
		c-0.046,0.014-0.091,0.032-0.136,0.051c-0.048,0.019-0.094,0.038-0.139,0.063c-0.016,0.008-0.033,0.013-0.048,0.021
		l-207.511,119.692l-101.08-58.396L490.224,2456.171z M595.022,2753.686l-103.299-59.705v-116.67l205.092,118.296l0.052,237.075
		l-101.095-58.381v-119.316C595.772,2754.448,595.487,2753.953,595.022,2753.686 M387.582,2757.572l101.039,58.392v116.668
		l-100.896-58.19c-0.029-0.081-0.062-0.162-0.107-0.239c-0.011-0.018-0.025-0.032-0.036-0.05V2757.572z M385.331,2753.674
		c-0.464,0.27-0.749,0.765-0.749,1.299v119.252l-101.09,58.436l-0.189-236.921l205.421-118.488v116.677L385.331,2753.674z
		 M389.08,2754.973l101.099-58.421l101.08,58.423l-101.138,58.392L389.08,2754.973z M491.621,2815.964l101.152-58.398v116.735
		l-101.152,58.332V2815.964z M177.769,2995.396l-0.016-0.028h0.032L177.769,2995.396z M177.083,2633.381
		c-0.464,0.269-0.751,0.764-0.751,1.299l-0.048,359.877l-101.117,58.38l0.056-477.47l413.5-238.65v116.756L177.083,2633.381z
		 M488.621,3173.103l-309.336-178.6l0.048-357.225l100.97,58.334l0.191,239.647c0,0.015,0.004,0.025,0.004,0.038
		c0.004,0.119,0.017,0.237,0.047,0.354c0.001,0.002,0.003,0.005,0.004,0.008c0.03,0.11,0.076,0.214,0.131,0.315
		c0.015,0.027,0.033,0.054,0.05,0.082c0.048,0.075,0.102,0.146,0.164,0.214c0.021,0.021,0.041,0.047,0.063,0.067
		c0.086,0.082,0.179,0.158,0.286,0.221l207.378,119.784V3173.103z M490.224,3053.805l-205.232-118.546l101.037-58.333
		l103.342,59.603c0.232,0.134,0.491,0.201,0.75,0.201c0.258,0,0.517-0.067,0.749-0.201l103.402-59.629l101.072,58.364
		L490.224,3053.805z M800.964,2994.501l-309.343,178.602v-116.641l207.498-119.915c0.464-0.268,0.75-0.763,0.75-1.299
		l-0.053-239.484l101.183-58.37L800.964,2994.501z M905.019,3052.881l-101.055-58.354l0.035-359.731
		c0-0.535-0.285-1.029-0.749-1.299h-0.002l-311.524-179.923v-116.757l413.295,238.681V3052.881z"/>
	<path clip-path="url(#SVGID_2_)" fill="#1D1D1B" d="M1740.11,2572.973l-416.295-240.414c-0.463-0.267-1.036-0.268-1.5,0
		l-416.5,240.383c-0.464,0.269-0.75,0.764-0.75,1.299l-0.057,480.934c0,0.536,0.286,1.032,0.75,1.299
		c0.232,0.135,0.492,0.201,0.75,0.201c0.259,0,0.519-0.066,0.75-0.201l103.414-59.705l311.54,179.871
		c0.231,0.135,0.491,0.201,0.75,0.201c0.258,0,0.518-0.066,0.75-0.201l311.573-179.887l103.325,59.666
		c0.232,0.135,0.491,0.202,0.75,0.202s0.518-0.067,0.75-0.202c0.464-0.268,0.75-0.762,0.75-1.298v-480.849
		C1740.86,2573.736,1740.574,2573.24,1740.11,2572.973 M1323.065,2455.812l309.275,178.623l-101.045,58.293l-207.531-119.702
		c-0.015-0.009-0.03-0.013-0.045-0.021c-0.047-0.025-0.096-0.045-0.146-0.065c-0.044-0.018-0.086-0.035-0.13-0.049
		c-0.046-0.014-0.093-0.021-0.141-0.031c-0.048-0.01-0.096-0.02-0.144-0.024c-0.048-0.004-0.095-0.003-0.143-0.003
		c-0.049,0-0.096-0.001-0.144,0.003c-0.049,0.005-0.097,0.015-0.146,0.024c-0.046,0.011-0.092,0.018-0.137,0.031
		c-0.046,0.014-0.091,0.032-0.136,0.051c-0.048,0.019-0.094,0.038-0.139,0.063c-0.016,0.008-0.033,0.013-0.048,0.021
		l-207.511,119.692l-101.08-58.396L1323.065,2455.812z M1427.864,2753.326l-103.299-59.705v-116.67l205.092,118.296l0.052,237.075
		l-101.095-58.381v-119.316C1428.614,2754.089,1428.328,2753.594,1427.864,2753.326 M1220.423,2757.213l101.039,58.392v116.668
		l-100.896-58.19c-0.029-0.081-0.062-0.162-0.107-0.239c-0.011-0.018-0.025-0.032-0.036-0.05V2757.213z M1218.172,2753.314
		c-0.464,0.27-0.749,0.765-0.749,1.299v119.252l-101.09,58.436l-0.189-236.921l205.421-118.488v116.677L1218.172,2753.314z
		 M1221.921,2754.613l101.099-58.421l101.08,58.423l-101.138,58.392L1221.921,2754.613z M1324.462,2815.604l101.152-58.398v116.735
		l-101.152,58.332V2815.604z M1010.61,2995.037l-0.016-0.028h0.032L1010.61,2995.037z M1009.925,2633.021
		c-0.464,0.269-0.751,0.764-0.751,1.299l-0.048,359.877l-101.117,58.38l0.056-477.47l413.5-238.65v116.756L1009.925,2633.021z
		 M1321.462,3172.743l-309.336-178.6l0.048-357.225l100.97,58.334l0.191,239.647c0,0.015,0.004,0.025,0.004,0.038
		c0.004,0.119,0.017,0.237,0.047,0.354c0.001,0.002,0.003,0.005,0.004,0.008c0.03,0.11,0.076,0.214,0.131,0.315
		c0.015,0.027,0.033,0.054,0.05,0.082c0.048,0.075,0.102,0.146,0.164,0.214c0.021,0.021,0.041,0.047,0.063,0.067
		c0.086,0.082,0.179,0.158,0.286,0.221l207.378,119.784V3172.743z M1323.065,3053.445l-205.232-118.546l101.037-58.333
		l103.342,59.603c0.232,0.134,0.491,0.201,0.75,0.201c0.258,0,0.517-0.067,0.749-0.201l103.402-59.629l101.072,58.364
		L1323.065,3053.445z M1633.806,2994.142l-309.343,178.602v-116.641l207.498-119.915c0.464-0.268,0.75-0.763,0.75-1.299
		l-0.053-239.484l101.183-58.37L1633.806,2994.142z M1737.86,3052.521l-101.055-58.354l0.035-359.731
		c0-0.535-0.285-1.029-0.749-1.299h-0.002l-311.524-179.923v-116.757l413.295,238.681V3052.521z"/>
	<path clip-path="url(#SVGID_2_)" fill="#1D1D1B" d="M2572.962,2573.332l-416.295-240.414c-0.463-0.267-1.036-0.268-1.5,0
		l-416.5,240.383c-0.464,0.269-0.75,0.764-0.75,1.299l-0.056,480.934c0,0.536,0.285,1.032,0.75,1.299
		c0.231,0.135,0.491,0.201,0.75,0.201c0.258,0,0.518-0.066,0.75-0.201l103.413-59.705l311.54,179.871
		c0.231,0.135,0.491,0.201,0.75,0.201c0.258,0,0.519-0.066,0.75-0.201l311.573-179.887l103.325,59.666
		c0.232,0.135,0.491,0.202,0.75,0.202s0.518-0.067,0.75-0.202c0.464-0.268,0.75-0.762,0.75-1.298v-480.849
		C2573.712,2574.096,2573.426,2573.6,2572.962,2573.332 M2155.917,2456.171l309.275,178.623l-101.045,58.293l-207.531-119.702
		c-0.015-0.009-0.03-0.013-0.045-0.021c-0.047-0.025-0.096-0.045-0.146-0.065c-0.044-0.018-0.086-0.035-0.13-0.049
		c-0.046-0.014-0.093-0.021-0.141-0.031s-0.096-0.02-0.144-0.024c-0.048-0.004-0.095-0.003-0.143-0.003
		c-0.049,0-0.096-0.001-0.144,0.003c-0.049,0.005-0.097,0.015-0.146,0.024c-0.046,0.011-0.092,0.018-0.138,0.031
		c-0.046,0.014-0.091,0.032-0.136,0.051c-0.048,0.019-0.094,0.038-0.139,0.063c-0.016,0.008-0.033,0.013-0.048,0.021
		l-207.511,119.692l-101.079-58.396L2155.917,2456.171z M2260.716,2753.686l-103.299-59.705v-116.67l205.092,118.296l0.052,237.075
		l-101.095-58.381v-119.316C2261.466,2754.448,2261.18,2753.953,2260.716,2753.686 M2053.275,2757.572l101.039,58.392v116.668
		l-100.896-58.19c-0.029-0.081-0.063-0.162-0.107-0.239c-0.011-0.018-0.024-0.032-0.036-0.05V2757.572z M2051.024,2753.674
		c-0.464,0.27-0.749,0.765-0.749,1.299v119.252l-101.09,58.436l-0.189-236.921l205.421-118.488v116.677L2051.024,2753.674z
		 M2054.772,2754.973l101.1-58.421l101.08,58.423l-101.139,58.392L2054.772,2754.973z M2157.313,2815.964l101.152-58.398v116.735
		l-101.152,58.332V2815.964z M1843.462,2995.396l-0.016-0.028h0.032L1843.462,2995.396z M1842.777,2633.381
		c-0.464,0.269-0.75,0.764-0.75,1.299l-0.049,359.877l-101.117,58.38l0.056-477.47l413.5-238.65v116.756L1842.777,2633.381z
		 M2154.313,3173.103l-309.335-178.6l0.048-357.225l100.97,58.334l0.191,239.647c0,0.015,0.004,0.025,0.005,0.038
		c0.003,0.119,0.016,0.237,0.046,0.354c0.001,0.002,0.003,0.005,0.004,0.008c0.03,0.11,0.077,0.214,0.131,0.315
		c0.015,0.027,0.033,0.054,0.051,0.082c0.047,0.075,0.102,0.146,0.163,0.214c0.021,0.021,0.041,0.047,0.064,0.067
		c0.085,0.082,0.178,0.158,0.285,0.221l207.377,119.784V3173.103z M2155.917,3053.805l-205.232-118.546l101.037-58.333
		l103.342,59.603c0.232,0.134,0.491,0.201,0.75,0.201c0.258,0,0.518-0.067,0.749-0.201l103.402-59.629l101.072,58.364
		L2155.917,3053.805z M2466.657,2994.501l-309.343,178.602v-116.641l207.498-119.915c0.464-0.268,0.75-0.763,0.75-1.299
		l-0.053-239.484l101.183-58.37L2466.657,2994.501z M2570.712,3052.881l-101.055-58.354l0.035-359.731
		c0-0.535-0.285-1.029-0.749-1.299h-0.002l-311.523-179.923v-116.757l413.295,238.681V3052.881z"/>
	<path clip-path="url(#SVGID_2_)" fill="#1D1D1B" d="M3405.803,2572.973l-416.295-240.414c-0.463-0.267-1.035-0.268-1.499,0h-0.001
		l-416.499,240.383c-0.464,0.269-0.75,0.764-0.75,1.299l-0.057,480.934c0,0.536,0.286,1.032,0.75,1.299
		c0.232,0.135,0.491,0.201,0.75,0.201s0.518-0.066,0.75-0.201l103.414-59.705l311.539,179.871c0.231,0.135,0.491,0.201,0.75,0.201
		c0.258,0,0.518-0.066,0.75-0.201l311.573-179.887l103.324,59.666c0.232,0.135,0.491,0.202,0.75,0.202c0.26,0,0.52-0.067,0.75-0.202
		c0.465-0.268,0.75-0.762,0.75-1.298v-480.849C3406.553,2573.736,3406.268,2573.24,3405.803,2572.973 M2988.758,2455.812
		l309.275,178.623l-101.044,58.293l-207.532-119.702c-0.014-0.009-0.03-0.013-0.045-0.021c-0.046-0.025-0.095-0.045-0.145-0.065
		c-0.045-0.018-0.088-0.035-0.131-0.049c-0.047-0.014-0.094-0.021-0.142-0.031c-0.047-0.01-0.095-0.02-0.144-0.024
		c-0.047-0.004-0.096-0.003-0.144-0.003s-0.095-0.001-0.143,0.003c-0.05,0.005-0.098,0.015-0.146,0.024
		c-0.047,0.011-0.093,0.018-0.138,0.031c-0.046,0.014-0.09,0.032-0.137,0.051s-0.094,0.038-0.139,0.063
		c-0.015,0.008-0.031,0.013-0.048,0.021l-207.51,119.692l-101.08-58.396L2988.758,2455.812z M3093.559,2753.326l-103.301-59.705
		v-116.67l205.092,118.296l0.054,237.075l-101.097-58.381v-119.316C3094.307,2754.089,3094.022,2753.594,3093.559,2753.326
		 M2886.116,2757.213l101.039,58.392v116.668l-100.896-58.19c-0.029-0.081-0.063-0.162-0.106-0.239
		c-0.011-0.018-0.026-0.032-0.037-0.05V2757.213z M2883.866,2753.314c-0.464,0.27-0.75,0.765-0.75,1.299v119.252l-101.09,58.436
		l-0.189-236.921l205.421-118.488v116.677L2883.866,2753.314z M2887.614,2754.613l101.099-58.421l101.08,58.423l-101.137,58.392
		L2887.614,2754.613z M2990.155,2815.604l101.151-58.398v116.735l-101.151,58.332V2815.604z M2676.303,2995.037l-0.015-0.028h0.031
		L2676.303,2995.037z M2675.618,2633.021c-0.464,0.269-0.75,0.764-0.75,1.299l-0.049,359.877l-101.117,58.38l0.057-477.47
		l413.499-238.65v116.756L2675.618,2633.021z M2987.155,3172.743l-309.336-178.6l0.048-357.225l100.97,58.334l0.191,239.647
		c0,0.015,0.004,0.025,0.005,0.038c0.003,0.119,0.016,0.237,0.047,0.354c0.001,0.002,0.002,0.005,0.003,0.008
		c0.031,0.11,0.077,0.214,0.131,0.315c0.017,0.027,0.034,0.054,0.052,0.082c0.048,0.075,0.102,0.146,0.162,0.214
		c0.021,0.021,0.043,0.047,0.064,0.067c0.085,0.082,0.178,0.158,0.286,0.221l207.377,119.784V3172.743z M2988.758,3053.445
		l-205.23-118.546l101.037-58.333l103.342,59.603c0.23,0.134,0.49,0.201,0.749,0.201c0.258,0,0.517-0.067,0.75-0.201l103.401-59.629
		l101.071,58.364L2988.758,3053.445z M3299.498,2994.142l-309.343,178.602v-116.641l207.499-119.915
		c0.463-0.268,0.749-0.763,0.749-1.299l-0.052-239.484l101.182-58.37L3299.498,2994.142z M3403.553,3052.521l-101.055-58.354
		l0.035-359.731c0-0.535-0.285-1.029-0.749-1.299h-0.002l-311.524-179.923v-116.757l413.295,238.681V3052.521z"/>
	<path clip-path="url(#SVGID_2_)" fill="#1D1D1B" d="M4238.822,2572.971l-416.295-240.414c-0.463-0.267-1.035-0.268-1.5,0
		l-416.5,240.383c-0.464,0.269-0.75,0.764-0.75,1.299l-0.057,480.934c0,0.536,0.287,1.032,0.75,1.299
		c0.232,0.135,0.492,0.201,0.75,0.201c0.259,0,0.52-0.066,0.75-0.201l103.415-59.705l311.539,179.871
		c0.231,0.135,0.491,0.201,0.75,0.201c0.258,0,0.518-0.066,0.75-0.201l311.573-179.888l103.324,59.667
		c0.232,0.135,0.491,0.202,0.75,0.202c0.26,0,0.52-0.067,0.75-0.202c0.465-0.268,0.75-0.762,0.75-1.298V2574.27
		C4239.572,2573.734,4239.287,2573.238,4238.822,2572.971 M3821.777,2455.81l309.275,178.623l-101.045,58.292l-207.531-119.701
		c-0.014-0.009-0.03-0.013-0.045-0.021c-0.047-0.025-0.096-0.045-0.146-0.065c-0.043-0.018-0.086-0.035-0.129-0.049
		c-0.047-0.014-0.094-0.021-0.142-0.031c-0.047-0.01-0.095-0.021-0.144-0.024s-0.096-0.003-0.144-0.003
		c-0.049,0-0.095-0.001-0.143,0.003c-0.05,0.004-0.099,0.015-0.147,0.024c-0.046,0.01-0.092,0.018-0.137,0.031
		c-0.046,0.014-0.091,0.032-0.137,0.051c-0.047,0.019-0.094,0.038-0.139,0.063c-0.015,0.008-0.033,0.012-0.048,0.021
		l-207.51,119.692l-101.081-58.396L3821.777,2455.81z M3926.578,2753.324l-103.301-59.705v-116.67l205.092,118.296l0.054,237.073
		l-101.097-58.379v-119.316C3927.326,2754.087,3927.042,2753.592,3926.578,2753.324 M3719.136,2757.211l101.039,58.391v116.669
		l-100.896-58.191c-0.028-0.08-0.062-0.161-0.105-0.238c-0.011-0.018-0.026-0.033-0.037-0.05V2757.211z M3716.886,2753.313
		c-0.464,0.27-0.75,0.765-0.75,1.299v119.252l-101.09,58.436l-0.189-236.921l205.421-118.488v116.677L3716.886,2753.313z
		 M3720.634,2754.611l101.099-58.421l101.08,58.423l-101.137,58.391L3720.634,2754.611z M3823.175,2815.603l101.151-58.398v116.735
		l-101.151,58.331V2815.603z M3509.322,2995.035l-0.016-0.028h0.032L3509.322,2995.035z M3508.638,2633.02
		c-0.464,0.269-0.751,0.764-0.751,1.299l-0.048,359.877l-101.117,58.38l0.056-477.47l413.5-238.651v116.757L3508.638,2633.02z
		 M3820.175,3172.741l-309.336-178.6l0.048-357.225l100.97,58.333l0.191,239.648c0,0.014,0.004,0.025,0.004,0.038
		c0.004,0.119,0.017,0.237,0.047,0.353c0.001,0.003,0.003,0.005,0.004,0.008c0.031,0.111,0.076,0.215,0.131,0.316
		c0.017,0.027,0.033,0.054,0.052,0.082c0.048,0.075,0.101,0.146,0.162,0.213c0.021,0.022,0.041,0.048,0.063,0.068
		c0.086,0.082,0.179,0.158,0.287,0.221l207.377,119.783V3172.741z M3821.777,3053.443l-205.23-118.546l101.037-58.333
		l103.342,59.603c0.23,0.134,0.49,0.201,0.749,0.201c0.258,0,0.517-0.067,0.75-0.201l103.401-59.629l101.071,58.364
		L3821.777,3053.443z M4132.518,2994.14l-309.343,178.602v-116.641l207.499-119.915c0.463-0.268,0.749-0.763,0.749-1.299
		l-0.054-239.484l101.184-58.37L4132.518,2994.14z M4236.572,3052.52l-101.055-58.355l0.035-359.73c0-0.535-0.285-1.029-0.749-1.299
		c-0.001,0-0.003,0-0.003-0.001l-311.523-179.922v-116.757l413.295,238.681V3052.52z"/>
	<path clip-path="url(#SVGID_2_)" fill="#1D1D1B" d="M5071.701,2572.971l-416.295-240.414c-0.463-0.267-1.035-0.268-1.499,0h-0.001
		l-416.5,240.383c-0.464,0.269-0.75,0.764-0.75,1.299l-0.057,480.934c0,0.536,0.287,1.032,0.75,1.299
		c0.232,0.135,0.492,0.201,0.75,0.201c0.259,0,0.52-0.066,0.75-0.201l103.415-59.705l311.538,179.871
		c0.232,0.135,0.492,0.201,0.75,0.201c0.259,0,0.519-0.066,0.75-0.201l311.574-179.888l103.324,59.667
		c0.232,0.135,0.491,0.202,0.75,0.202c0.26,0,0.52-0.067,0.75-0.202c0.465-0.268,0.75-0.762,0.75-1.298V2574.27
		C5072.451,2573.734,5072.166,2573.238,5071.701,2572.971 M4654.656,2455.81l309.275,178.623l-101.045,58.292l-207.531-119.701
		c-0.014-0.009-0.03-0.013-0.045-0.021c-0.046-0.025-0.096-0.045-0.145-0.065c-0.045-0.018-0.088-0.035-0.131-0.049
		c-0.047-0.014-0.094-0.021-0.141-0.031c-0.049-0.01-0.096-0.021-0.145-0.024c-0.047-0.004-0.096-0.003-0.144-0.003
		s-0.095-0.001-0.144,0.003s-0.097,0.015-0.146,0.024c-0.047,0.01-0.093,0.018-0.137,0.031c-0.048,0.014-0.091,0.032-0.136,0.051
		c-0.049,0.019-0.096,0.038-0.141,0.063c-0.015,0.008-0.031,0.012-0.048,0.021l-207.51,119.692l-101.081-58.396L4654.656,2455.81z
		 M4759.457,2753.324l-103.301-59.705v-116.67l205.092,118.296l0.053,237.073l-101.096-58.379v-119.316
		C4760.205,2754.087,4759.92,2753.592,4759.457,2753.324 M4552.015,2757.211l101.038,58.391v116.669l-100.895-58.191
		c-0.029-0.08-0.063-0.161-0.107-0.238c-0.01-0.018-0.025-0.033-0.036-0.05V2757.211z M4549.765,2753.313
		c-0.464,0.27-0.75,0.765-0.75,1.299v119.252l-101.091,58.436l-0.188-236.921l205.421-118.488v116.677L4549.765,2753.313z
		 M4553.512,2754.611l101.1-58.421l101.08,58.423l-101.137,58.391L4553.512,2754.611z M4656.053,2815.603l101.152-58.398v116.735
		l-101.152,58.331V2815.603z M4342.201,2995.035l-0.015-0.028h0.03L4342.201,2995.035z M4341.517,2633.02
		c-0.464,0.269-0.751,0.764-0.751,1.299l-0.049,359.877l-101.116,58.38l0.056-477.47l413.5-238.651v116.757L4341.517,2633.02z
		 M4653.053,3172.741l-309.336-178.6l0.049-357.225l100.97,58.333l0.19,239.648c0,0.014,0.005,0.025,0.006,0.038
		c0.003,0.119,0.016,0.237,0.047,0.353c0,0.003,0.002,0.005,0.003,0.008c0.03,0.111,0.076,0.215,0.131,0.316
		c0.017,0.027,0.033,0.054,0.052,0.082c0.047,0.075,0.102,0.146,0.162,0.213c0.021,0.022,0.041,0.048,0.064,0.068
		c0.085,0.082,0.178,0.158,0.285,0.221l207.377,119.783V3172.741z M4654.656,3053.443l-205.23-118.546l101.037-58.333
		l103.342,59.603c0.23,0.134,0.49,0.201,0.748,0.201c0.259,0,0.518-0.067,0.75-0.201l103.402-59.629l101.071,58.364
		L4654.656,3053.443z M4965.396,2994.14l-309.344,178.602v-116.641l207.5-119.915c0.463-0.268,0.748-0.763,0.748-1.299
		l-0.051-239.484l101.182-58.37L4965.396,2994.14z M5069.451,3052.52l-101.055-58.355l0.035-359.73c0-0.535-0.285-1.029-0.749-1.299
		c-0.001,0-0.001,0-0.003-0.001l-311.523-179.922v-116.757l413.295,238.681V3052.52z"/>
</g>
</svg>
