<?xml version="1.0" encoding="utf-8"?>
<!-- Generator: Adobe Illustrator 16.0.0, SVG Export Plug-In . SVG Version: 6.00 Build 0)  -->
<!DOCTYPE svg PUBLIC "-//W3C//DTD SVG 1.1//EN" "http://www.w3.org/Graphics/SVG/1.1/DTD/svg11.dtd">
<svg version="1.1" id="Layer_1" xmlns="http://www.w3.org/2000/svg" xmlns:xlink="http://www.w3.org/1999/xlink" x="0px" y="0px"
	 viewBox="0 0 2447.692 1153.92" enable-background="new 0 0 2447.692 1153.92"
	 xml:space="preserve">
<g>
	<g>
		<path fill="#6B6C6F" d="M1325.362,515.942c-6.029-8.297-14.463-14.456-25.293-18.478c10.83-4.717,18.826-11.531,23.98-20.441
			c5.152-8.912,7.732-19.22,7.732-30.928c0-8.387-1.703-15.725-5.109-22.015c-3.408-6.291-7.955-11.532-13.631-15.726
			c-5.68-4.193-12.145-7.135-19.395-9.321c-7.252-2.184-14.637-3.034-22.146-3.034h-124.152v33h64.236l0,0h46.551
			c9.961,0,17.34,2.303,22.146,6.846c4.805,4.544,7.207,10.849,7.207,18.883c0,8.038-2.402,14.537-7.207,19.165
			c-4.807,4.631-12.186,7.107-22.146,7.107h-67.787v-14h-43v133H1271.5c8.037,0,15.859-1.119,23.457-2.782
			c7.602-1.657,14.326-4.688,20.182-8.795c5.852-4.104,10.523-9.68,14.021-16.584c3.494-6.899,5.24-15.631,5.24-26.115
			C1334.401,534.192,1331.389,524.242,1325.362,515.942z M1280.282,559.62c-4.807,4.547-12.186,7.38-22.146,7.38h-67.787v-52h67.787
			c9.961,0,17.34,1.891,22.146,6.434c4.805,4.547,7.207,10.927,7.207,18.962C1287.489,548.61,1285.086,555.079,1280.282,559.62z"/>
		<path fill="#6B6C6F" d="M1503.1,595.484c-8.477-2.621-15.945-6.814-22.408-12.58c-6.465-5.766-11.576-13.367-15.33-22.802
			c-3.76-9.435-5.635-20.966-5.635-34.594V395.513h42.98v127.111c0,6.117,0.959,11.707,2.883,16.772
			c1.92,5.071,4.674,9.481,8.256,13.235c3.578,3.76,7.949,6.684,13.104,8.779c5.152,2.098,11.049,3.146,17.691,3.146h56.088v34.857
			h-70.764C1520.53,599.415,1511.575,598.104,1503.1,595.484z"/>
		<path fill="#6B6C6F" d="M1661.014,595.484c-8.475-2.621-15.945-6.814-22.406-12.58c-6.467-5.766-11.578-13.367-15.332-22.802
			c-3.758-9.435-5.637-20.966-5.637-34.594V395.513h42.982v127.111c0,6.117,0.957,11.707,2.885,16.772
			c1.92,5.071,4.672,9.481,8.256,13.235c3.576,3.76,7.947,6.684,13.104,8.779c5.15,2.098,11.049,3.146,17.689,3.146h56.088v34.857
			h-70.766C1678.444,599.415,1669.489,598.104,1661.014,595.484z"/>
		<path fill="#6B6C6F" d="M2110.928,599.415V395.513h54.775l82.033,149.126h1.047V395.513h42.982v203.901h-54.777l-82.031-149.388
			h-1.047v149.388H2110.928z"/>
		<g>
			<rect x="1371.348" y="396" fill="#6B6C6F" width="43" height="33"/>
			<rect x="1371.348" y="466" fill="#6B6C6F" width="43" height="134"/>
		</g>
		<g>
			<rect x="1793.348" y="466" fill="#6B6C6F" width="42" height="134"/>
			<rect x="1793.348" y="396" fill="#6B6C6F" width="42" height="33"/>
		</g>
		<g>
			<path fill="#6B6C6F" d="M2028.042,535c-1.324,4-3.066,8.178-5.262,11.885c-3.93,6.64-9.609,11.894-17.035,15.91
				c-7.428,4.021-17.52,5.994-30.27,5.994c-12.756,0-22.893-2.026-30.402-6.047c-7.514-4.017-13.236-9.208-17.166-15.849
				c-2.195-3.707-3.939-7.892-5.262-11.892h-45.086c0.262,1,0.523,2.293,0.813,3.496c3.055,12.757,8.43,23.774,16.119,33.212
				c7.686,9.434,18.084,16.868,31.188,22.371c13.104,5.506,29.701,8.239,49.797,8.239c19.918,0,36.43-2.763,49.533-8.267
				s23.496-12.978,31.188-22.411c7.688-9.436,13.059-20.386,16.119-33.142c0.287-1.205,0.549-2.498,0.811-3.498H2028.042z"/>
			<path fill="#6B6C6F" d="M1918.604,498c0-1-0.002-0.304-0.002-0.38c0-9.084,0.566-17.985,1.703-26.549
				c1.135-8.56,3.67-16.198,7.602-22.84c3.93-6.639,9.652-11.986,17.166-16.006c7.51-4.018,17.646-6.039,30.402-6.039
				c12.75,0,22.842,2.008,30.27,6.025c7.426,4.021,13.105,9.344,17.035,15.982c3.934,6.643,6.094,14.243,7.234,22.802
				c1.133,8.563,1.334,17.561,1.334,26.645c0,0.076,0-0.64,0,0.36h45.551c0-1,0.002-0.304,0.002-0.38
				c0-14.678-1.531-28.47-4.586-41.226c-3.061-12.752-8.432-23.888-16.119-33.324c-7.691-9.436-18.084-16.878-31.188-22.296
				c-13.104-5.413-29.615-8.135-49.533-8.135c-20.096,0-36.693,2.707-49.797,8.121c-13.104,5.418-23.502,12.837-31.188,22.272
				c-7.689,9.436-13.064,20.533-16.119,33.285c-3.059,12.756-4.586,26.625-4.586,41.301c0,0.076,0.004-0.619,0.004,0.381H1918.604z"
				/>
		</g>
	</g>
	<g>
		<path fill="#6B6C6F" d="M1840.182,706.099h-110.602c-6.99,0-13.104,2.011-18.346,6.027c-5.242,4.021-7.861,10.135-7.861,18.347
			c0,4.545,0.695,8.345,2.096,11.4c1.396,3.06,3.316,5.549,5.766,7.469c2.445,1.924,5.242,3.32,8.387,4.193
			c3.146,0.877,6.463,1.311,9.959,1.311h63.162c5.414,0,11.488,0.918,18.215,2.752c6.725,1.834,13.061,5.024,19.004,9.567
			c5.936,4.545,10.914,10.704,14.938,18.475c4.018,7.777,6.027,17.605,6.027,29.486c0,11.882-2.01,21.668-6.027,29.353
			c-4.023,7.69-9.002,13.804-14.938,18.345c-5.943,4.547-12.279,7.732-19.004,9.568c-6.727,1.834-12.801,2.752-18.215,2.752
			h-132.613v-34.859h112.695c3.67,0,7.117-0.654,10.352-1.963c3.232-1.313,6.027-3.058,8.389-5.243
			c2.357-2.183,4.234-4.803,5.635-7.863c1.396-3.054,2.096-6.421,2.096-10.089c0-7.34-2.578-13.367-7.73-18.085
			c-5.156-4.717-11.402-7.076-18.74-7.076h-62.9c-5.594,0-11.754-0.871-18.477-2.62c-6.729-1.746-13.063-4.85-19-9.304
			c-5.943-4.456-10.924-10.524-14.941-18.216c-4.02-7.687-6.027-17.47-6.027-29.353c0-11.88,2.008-21.624,6.027-29.223
			c4.018-7.601,8.998-13.628,14.941-18.084c5.938-4.457,12.271-7.556,19-9.304c6.723-1.745,12.883-2.622,18.477-2.622h130.258
			V706.099z"/>
		<path fill="#6B6C6F" d="M1324.641,791.669c-6.027-8.297-14.461-14.455-25.291-18.479c10.83-4.717,18.824-11.531,23.98-20.441
			c5.15-8.911,7.732-19.218,7.732-30.926c0-8.387-1.705-15.725-5.111-22.015c-3.408-6.291-7.953-11.533-13.629-15.725
			c-5.68-4.194-12.146-7-19.395-9.187c-7.252-2.184-14.637-2.897-22.146-2.897h-123.434v33h63.515l0,0h46.551
			c9.961,0,17.34,2.167,22.146,6.707c4.805,4.547,7.209,10.782,7.209,18.817c0,8.039-2.404,14.638-7.209,19.267
			c-4.807,4.631-12.186,7.208-22.146,7.208h-68.066v-15h-42v134h123.434c8.033,0,15.855-1.256,23.457-2.919
			c7.6-1.657,14.324-4.756,20.182-8.863c5.85-4.104,10.521-9.713,14.02-16.618c3.492-6.9,5.242-15.648,5.242-26.131
			C1333.682,809.938,1330.668,799.97,1324.641,791.669z M1279.561,834.984c-4.807,4.544-12.186,7.016-22.146,7.016h-68.066v-52
			h68.066c9.961,0,17.34,2.255,22.146,6.796c4.805,4.547,7.209,10.928,7.209,18.963
			C1286.77,823.974,1284.366,830.443,1279.561,834.984z"/>
		<g>
			<rect x="1370.348" y="672" fill="#6B6C6F" width="42" height="33"/>
			<rect x="1370.348" y="742" fill="#6B6C6F" width="42" height="134"/>
		</g>
		<g>
			<rect x="1444.348" y="672" fill="#6B6C6F" width="179" height="33"/>
			<rect x="1513.348" y="742" fill="#6B6C6F" width="42" height="134"/>
		</g>
	</g>
</g>
<g>
	<g>
		<polygon fill="#6B6C6F" points="991.684,877.822 991.684,396.974 575.389,156.56 575.389,637.425 		"/>
		<polygon fill="#5CFFFF" points="158.832,877.876 158.889,396.943 575.389,156.56 575.285,637.441 		"/>
	</g>
	<g>
		<polygon fill="#6B6C6F" points="262.998,457.023 262.949,817.71 575.285,998.041 575.285,637.441 		"/>
		<polygon fill="#5CFFFF" points="887.664,457.138 887.629,817.709 575.285,998.041 575.285,637.441 		"/>
		<polygon fill="#FFFFFF" points="575.389,276.781 262.998,457.023 575.285,637.441 887.664,457.138 		"/>
	</g>
	<g>
		<polygon fill="#6B6C6F" points="783.533,757.591 783.48,517.081 575.338,397.027 575.338,637.261 		"/>
		<polygon fill="#5CFFFF" points="367.158,757.601 366.967,517.216 575.338,397.027 575.338,637.261 		"/>
		<polygon fill="#FFFFFF" points="575.389,877.878 783.533,757.591 575.338,637.261 367.158,757.601 		"/>
	</g>
	<g>
		<polygon fill="#6B6C6F" points="471.246,577.315 471.246,697.566 575.285,757.571 575.285,637.38 		"/>
		<polygon fill="#5CFFFF" points="679.438,577.326 679.438,697.509 575.285,757.571 575.285,637.38 		"/>
		<polygon fill="#FFFFFF" points="575.344,517.162 471.246,577.315 575.26,637.41 679.438,577.326 		"/>
	</g>
</g>
</svg>
