<?xml version="1.0" encoding="UTF-8" standalone="no"?>
<!-- Generator: Adobe Illustrator 22.1.0, SVG Export Plug-In . SVG Version: 6.00 Build 0)  -->

<svg
   xmlns:dc="http://purl.org/dc/elements/1.1/"
   xmlns:cc="http://creativecommons.org/ns#"
   xmlns:rdf="http://www.w3.org/1999/02/22-rdf-syntax-ns#"
   xmlns:svg="http://www.w3.org/2000/svg"
   xmlns="http://www.w3.org/2000/svg"
   xmlns:xlink="http://www.w3.org/1999/xlink"
   xmlns:sodipodi="http://sodipodi.sourceforge.net/DTD/sodipodi-0.dtd"
   xmlns:inkscape="http://www.inkscape.org/namespaces/inkscape"
   version="1.1"
   id="Camada_1"
   x="0px"
   y="0px"
   viewBox="0 0 148 148"
   xml:space="preserve"
   sodipodi:docname="REDDIT_LOGO_WHITE.svg"
   width="148"
   height="148"
   inkscape:version="0.92.3 (2405546, 2018-03-11)"><metadata
   id="metadata511"><rdf:RDF><cc:Work
       rdf:about=""><dc:format>image/svg+xml</dc:format><dc:type
         rdf:resource="http://purl.org/dc/dcmitype/StillImage" /><dc:title></dc:title></cc:Work></rdf:RDF></metadata><defs
   id="defs509"><clipPath
     id="SVGID_14_"><use
       height="100%"
       width="100%"
       y="0"
       x="0"
       xlink:href="#SVGID_13_"
       style="overflow:visible"
       id="use405" /></clipPath><clipPath
     id="clipPath1332"><use
       height="100%"
       width="100%"
       y="0"
       x="0"
       xlink:href="#SVGID_13_"
       style="overflow:visible"
       id="use1330" /></clipPath><clipPath
     id="clipPath1336"><use
       height="100%"
       width="100%"
       y="0"
       x="0"
       xlink:href="#SVGID_13_"
       style="overflow:visible"
       id="use1334" /></clipPath><clipPath
     id="clipPath1340"><use
       height="100%"
       width="100%"
       y="0"
       x="0"
       xlink:href="#SVGID_13_"
       style="overflow:visible"
       id="use1338" /></clipPath><clipPath
     id="clipPath1344"><use
       height="100%"
       width="100%"
       y="0"
       x="0"
       xlink:href="#SVGID_13_"
       style="overflow:visible"
       id="use1342" /></clipPath><clipPath
     id="clipPath1348"><use
       height="100%"
       width="100%"
       y="0"
       x="0"
       xlink:href="#SVGID_13_"
       style="overflow:visible"
       id="use1346" /></clipPath><clipPath
     id="clipPath1352"><use
       height="100%"
       width="100%"
       y="0"
       x="0"
       xlink:href="#SVGID_13_"
       style="overflow:visible"
       id="use1350" /></clipPath><clipPath
     id="clipPath1356"><use
       height="100%"
       width="100%"
       y="0"
       x="0"
       xlink:href="#SVGID_13_"
       style="overflow:visible"
       id="use1354" /></clipPath><clipPath
     id="clipPath1360"><use
       height="100%"
       width="100%"
       y="0"
       x="0"
       xlink:href="#SVGID_13_"
       style="overflow:visible"
       id="use1358" /></clipPath><clipPath
     id="clipPath1364"><use
       height="100%"
       width="100%"
       y="0"
       x="0"
       xlink:href="#SVGID_13_"
       style="overflow:visible"
       id="use1362" /></clipPath><clipPath
     id="clipPath1368"><use
       height="100%"
       width="100%"
       y="0"
       x="0"
       xlink:href="#SVGID_13_"
       style="overflow:visible"
       id="use1366" /></clipPath><clipPath
     id="clipPath1372"><use
       height="100%"
       width="100%"
       y="0"
       x="0"
       xlink:href="#SVGID_13_"
       style="overflow:visible"
       id="use1370" /></clipPath><clipPath
     id="clipPath1376"><use
       height="100%"
       width="100%"
       y="0"
       x="0"
       xlink:href="#SVGID_13_"
       style="overflow:visible"
       id="use1374" /></clipPath><clipPath
     id="clipPath1380"><use
       height="100%"
       width="100%"
       y="0"
       x="0"
       xlink:href="#SVGID_13_"
       style="overflow:visible"
       id="use1378" /></clipPath><clipPath
     id="clipPath1384"><use
       height="100%"
       width="100%"
       y="0"
       x="0"
       xlink:href="#SVGID_13_"
       style="overflow:visible"
       id="use1382" /></clipPath><clipPath
     id="clipPath1388"><use
       height="100%"
       width="100%"
       y="0"
       x="0"
       xlink:href="#SVGID_13_"
       style="overflow:visible"
       id="use1386" /></clipPath><clipPath
     id="clipPath1392"><use
       height="100%"
       width="100%"
       y="0"
       x="0"
       xlink:href="#SVGID_13_"
       style="overflow:visible"
       id="use1390" /></clipPath><clipPath
     id="clipPath1396"><use
       height="100%"
       width="100%"
       y="0"
       x="0"
       xlink:href="#SVGID_13_"
       style="overflow:visible"
       id="use1394" /></clipPath><clipPath
     id="clipPath1400"><use
       height="100%"
       width="100%"
       y="0"
       x="0"
       xlink:href="#SVGID_13_"
       style="overflow:visible"
       id="use1398" /></clipPath><clipPath
     id="clipPath1404"><use
       height="100%"
       width="100%"
       y="0"
       x="0"
       xlink:href="#SVGID_13_"
       style="overflow:visible"
       id="use1402" /></clipPath><clipPath
     id="clipPath1408"><use
       height="100%"
       width="100%"
       y="0"
       x="0"
       xlink:href="#SVGID_13_"
       style="overflow:visible"
       id="use1406" /></clipPath><clipPath
     id="clipPath1412"><use
       height="100%"
       width="100%"
       y="0"
       x="0"
       xlink:href="#SVGID_13_"
       style="overflow:visible"
       id="use1410" /></clipPath><clipPath
     id="clipPath1416"><use
       height="100%"
       width="100%"
       y="0"
       x="0"
       xlink:href="#SVGID_13_"
       style="overflow:visible"
       id="use1414" /></clipPath><clipPath
     id="clipPath1420"><use
       height="100%"
       width="100%"
       y="0"
       x="0"
       xlink:href="#SVGID_13_"
       style="overflow:visible"
       id="use1418" /></clipPath><clipPath
     id="clipPath1424"><use
       height="100%"
       width="100%"
       y="0"
       x="0"
       xlink:href="#SVGID_13_"
       style="overflow:visible"
       id="use1422" /></clipPath><clipPath
     id="clipPath1428"><use
       height="100%"
       width="100%"
       y="0"
       x="0"
       xlink:href="#SVGID_13_"
       style="overflow:visible"
       id="use1426" /></clipPath><clipPath
     id="clipPath1432"><use
       height="100%"
       width="100%"
       y="0"
       x="0"
       xlink:href="#SVGID_13_"
       style="overflow:visible"
       id="use1430" /></clipPath><clipPath
     id="clipPath1436"><use
       height="100%"
       width="100%"
       y="0"
       x="0"
       xlink:href="#SVGID_13_"
       style="overflow:visible"
       id="use1434" /></clipPath><clipPath
     id="clipPath1440"><use
       height="100%"
       width="100%"
       y="0"
       x="0"
       xlink:href="#SVGID_13_"
       style="overflow:visible"
       id="use1438" /></clipPath><clipPath
     id="clipPath1444"><use
       height="100%"
       width="100%"
       y="0"
       x="0"
       xlink:href="#SVGID_13_"
       style="overflow:visible"
       id="use1442" /></clipPath><clipPath
     id="clipPath1448"><use
       height="100%"
       width="100%"
       y="0"
       x="0"
       xlink:href="#SVGID_13_"
       style="overflow:visible"
       id="use1446" /></clipPath><clipPath
     id="clipPath1452"><use
       height="100%"
       width="100%"
       y="0"
       x="0"
       xlink:href="#SVGID_13_"
       style="overflow:visible"
       id="use1450" /></clipPath><clipPath
     id="clipPath1456"><use
       height="100%"
       width="100%"
       y="0"
       x="0"
       xlink:href="#SVGID_13_"
       style="overflow:visible"
       id="use1454" /></clipPath><clipPath
     id="clipPath1460"><use
       height="100%"
       width="100%"
       y="0"
       x="0"
       xlink:href="#SVGID_13_"
       style="overflow:visible"
       id="use1458" /></clipPath><clipPath
     id="clipPath1464"><use
       height="100%"
       width="100%"
       y="0"
       x="0"
       xlink:href="#SVGID_13_"
       style="overflow:visible"
       id="use1462" /></clipPath><clipPath
     id="clipPath1468"><use
       height="100%"
       width="100%"
       y="0"
       x="0"
       xlink:href="#SVGID_13_"
       style="overflow:visible"
       id="use1466" /></clipPath><clipPath
     id="clipPath1472"><use
       height="100%"
       width="100%"
       y="0"
       x="0"
       xlink:href="#SVGID_13_"
       style="overflow:visible"
       id="use1470" /></clipPath><clipPath
     id="clipPath1476"><use
       height="100%"
       width="100%"
       y="0"
       x="0"
       xlink:href="#SVGID_13_"
       style="overflow:visible"
       id="use1474" /></clipPath><clipPath
     id="clipPath1480"><use
       height="100%"
       width="100%"
       y="0"
       x="0"
       xlink:href="#SVGID_13_"
       style="overflow:visible"
       id="use1478" /></clipPath><clipPath
     id="clipPath1484"><use
       height="100%"
       width="100%"
       y="0"
       x="0"
       xlink:href="#SVGID_13_"
       style="overflow:visible"
       id="use1482" /></clipPath><clipPath
     id="clipPath1488"><use
       height="100%"
       width="100%"
       y="0"
       x="0"
       xlink:href="#SVGID_13_"
       style="overflow:visible"
       id="use1486" /></clipPath><clipPath
     id="clipPath1492"><use
       height="100%"
       width="100%"
       y="0"
       x="0"
       xlink:href="#SVGID_13_"
       style="overflow:visible"
       id="use1490" /></clipPath><clipPath
     id="clipPath1496"><use
       height="100%"
       width="100%"
       y="0"
       x="0"
       xlink:href="#SVGID_13_"
       style="overflow:visible"
       id="use1494" /></clipPath><clipPath
     id="clipPath1500"><use
       height="100%"
       width="100%"
       y="0"
       x="0"
       xlink:href="#SVGID_13_"
       style="overflow:visible"
       id="use1498" /></clipPath><clipPath
     id="clipPath1504"><use
       height="100%"
       width="100%"
       y="0"
       x="0"
       xlink:href="#SVGID_13_"
       style="overflow:visible"
       id="use1502" /></clipPath><clipPath
     id="clipPath1508"><use
       height="100%"
       width="100%"
       y="0"
       x="0"
       xlink:href="#SVGID_13_"
       style="overflow:visible"
       id="use1506" /></clipPath><clipPath
     id="clipPath1512"><use
       height="100%"
       width="100%"
       y="0"
       x="0"
       xlink:href="#SVGID_13_"
       style="overflow:visible"
       id="use1510" /></clipPath><clipPath
     id="clipPath1516"><use
       height="100%"
       width="100%"
       y="0"
       x="0"
       xlink:href="#SVGID_13_"
       style="overflow:visible"
       id="use1514" /></clipPath><clipPath
     id="SVGID_12_"><use
       height="100%"
       width="100%"
       y="0"
       x="0"
       xlink:href="#SVGID_11_"
       style="overflow:visible"
       id="use301" /></clipPath><clipPath
     id="clipPath1522"><use
       height="100%"
       width="100%"
       y="0"
       x="0"
       xlink:href="#SVGID_11_"
       style="overflow:visible"
       id="use1520" /></clipPath><clipPath
     id="clipPath1526"><use
       height="100%"
       width="100%"
       y="0"
       x="0"
       xlink:href="#SVGID_11_"
       style="overflow:visible"
       id="use1524" /></clipPath><clipPath
     id="clipPath1530"><use
       height="100%"
       width="100%"
       y="0"
       x="0"
       xlink:href="#SVGID_11_"
       style="overflow:visible"
       id="use1528" /></clipPath><clipPath
     id="clipPath1534"><use
       height="100%"
       width="100%"
       y="0"
       x="0"
       xlink:href="#SVGID_11_"
       style="overflow:visible"
       id="use1532" /></clipPath><clipPath
     id="clipPath1538"><use
       height="100%"
       width="100%"
       y="0"
       x="0"
       xlink:href="#SVGID_11_"
       style="overflow:visible"
       id="use1536" /></clipPath><clipPath
     id="clipPath1542"><use
       height="100%"
       width="100%"
       y="0"
       x="0"
       xlink:href="#SVGID_11_"
       style="overflow:visible"
       id="use1540" /></clipPath><clipPath
     id="clipPath1546"><use
       height="100%"
       width="100%"
       y="0"
       x="0"
       xlink:href="#SVGID_11_"
       style="overflow:visible"
       id="use1544" /></clipPath><clipPath
     id="clipPath1550"><use
       height="100%"
       width="100%"
       y="0"
       x="0"
       xlink:href="#SVGID_11_"
       style="overflow:visible"
       id="use1548" /></clipPath><clipPath
     id="clipPath1554"><use
       height="100%"
       width="100%"
       y="0"
       x="0"
       xlink:href="#SVGID_11_"
       style="overflow:visible"
       id="use1552" /></clipPath><clipPath
     id="clipPath1558"><use
       height="100%"
       width="100%"
       y="0"
       x="0"
       xlink:href="#SVGID_11_"
       style="overflow:visible"
       id="use1556" /></clipPath><clipPath
     id="clipPath1562"><use
       height="100%"
       width="100%"
       y="0"
       x="0"
       xlink:href="#SVGID_11_"
       style="overflow:visible"
       id="use1560" /></clipPath><clipPath
     id="clipPath1566"><use
       height="100%"
       width="100%"
       y="0"
       x="0"
       xlink:href="#SVGID_11_"
       style="overflow:visible"
       id="use1564" /></clipPath><clipPath
     id="clipPath1570"><use
       height="100%"
       width="100%"
       y="0"
       x="0"
       xlink:href="#SVGID_11_"
       style="overflow:visible"
       id="use1568" /></clipPath><clipPath
     id="clipPath1574"><use
       height="100%"
       width="100%"
       y="0"
       x="0"
       xlink:href="#SVGID_11_"
       style="overflow:visible"
       id="use1572" /></clipPath><clipPath
     id="clipPath1578"><use
       height="100%"
       width="100%"
       y="0"
       x="0"
       xlink:href="#SVGID_11_"
       style="overflow:visible"
       id="use1576" /></clipPath><clipPath
     id="clipPath1582"><use
       height="100%"
       width="100%"
       y="0"
       x="0"
       xlink:href="#SVGID_11_"
       style="overflow:visible"
       id="use1580" /></clipPath><clipPath
     id="clipPath1586"><use
       height="100%"
       width="100%"
       y="0"
       x="0"
       xlink:href="#SVGID_11_"
       style="overflow:visible"
       id="use1584" /></clipPath><clipPath
     id="clipPath1590"><use
       height="100%"
       width="100%"
       y="0"
       x="0"
       xlink:href="#SVGID_11_"
       style="overflow:visible"
       id="use1588" /></clipPath><clipPath
     id="clipPath1594"><use
       height="100%"
       width="100%"
       y="0"
       x="0"
       xlink:href="#SVGID_11_"
       style="overflow:visible"
       id="use1592" /></clipPath><clipPath
     id="clipPath1598"><use
       height="100%"
       width="100%"
       y="0"
       x="0"
       xlink:href="#SVGID_11_"
       style="overflow:visible"
       id="use1596" /></clipPath><clipPath
     id="clipPath1602"><use
       height="100%"
       width="100%"
       y="0"
       x="0"
       xlink:href="#SVGID_11_"
       style="overflow:visible"
       id="use1600" /></clipPath><clipPath
     id="clipPath1606"><use
       height="100%"
       width="100%"
       y="0"
       x="0"
       xlink:href="#SVGID_11_"
       style="overflow:visible"
       id="use1604" /></clipPath><clipPath
     id="clipPath1610"><use
       height="100%"
       width="100%"
       y="0"
       x="0"
       xlink:href="#SVGID_11_"
       style="overflow:visible"
       id="use1608" /></clipPath><clipPath
     id="clipPath1614"><use
       height="100%"
       width="100%"
       y="0"
       x="0"
       xlink:href="#SVGID_11_"
       style="overflow:visible"
       id="use1612" /></clipPath><clipPath
     id="clipPath1618"><use
       height="100%"
       width="100%"
       y="0"
       x="0"
       xlink:href="#SVGID_11_"
       style="overflow:visible"
       id="use1616" /></clipPath><clipPath
     id="clipPath1622"><use
       height="100%"
       width="100%"
       y="0"
       x="0"
       xlink:href="#SVGID_11_"
       style="overflow:visible"
       id="use1620" /></clipPath><clipPath
     id="clipPath1626"><use
       height="100%"
       width="100%"
       y="0"
       x="0"
       xlink:href="#SVGID_11_"
       style="overflow:visible"
       id="use1624" /></clipPath><clipPath
     id="clipPath1630"><use
       height="100%"
       width="100%"
       y="0"
       x="0"
       xlink:href="#SVGID_11_"
       style="overflow:visible"
       id="use1628" /></clipPath><clipPath
     id="clipPath1634"><use
       height="100%"
       width="100%"
       y="0"
       x="0"
       xlink:href="#SVGID_11_"
       style="overflow:visible"
       id="use1632" /></clipPath><clipPath
     id="clipPath1638"><use
       height="100%"
       width="100%"
       y="0"
       x="0"
       xlink:href="#SVGID_11_"
       style="overflow:visible"
       id="use1636" /></clipPath><clipPath
     id="clipPath1642"><use
       height="100%"
       width="100%"
       y="0"
       x="0"
       xlink:href="#SVGID_11_"
       style="overflow:visible"
       id="use1640" /></clipPath><clipPath
     id="clipPath1646"><use
       height="100%"
       width="100%"
       y="0"
       x="0"
       xlink:href="#SVGID_11_"
       style="overflow:visible"
       id="use1644" /></clipPath><clipPath
     id="clipPath1650"><use
       height="100%"
       width="100%"
       y="0"
       x="0"
       xlink:href="#SVGID_11_"
       style="overflow:visible"
       id="use1648" /></clipPath><clipPath
     id="clipPath1654"><use
       height="100%"
       width="100%"
       y="0"
       x="0"
       xlink:href="#SVGID_11_"
       style="overflow:visible"
       id="use1652" /></clipPath><clipPath
     id="clipPath1658"><use
       height="100%"
       width="100%"
       y="0"
       x="0"
       xlink:href="#SVGID_11_"
       style="overflow:visible"
       id="use1656" /></clipPath><clipPath
     id="clipPath1662"><use
       height="100%"
       width="100%"
       y="0"
       x="0"
       xlink:href="#SVGID_11_"
       style="overflow:visible"
       id="use1660" /></clipPath><clipPath
     id="clipPath1666"><use
       height="100%"
       width="100%"
       y="0"
       x="0"
       xlink:href="#SVGID_11_"
       style="overflow:visible"
       id="use1664" /></clipPath><clipPath
     id="clipPath1670"><use
       height="100%"
       width="100%"
       y="0"
       x="0"
       xlink:href="#SVGID_11_"
       style="overflow:visible"
       id="use1668" /></clipPath><clipPath
     id="clipPath1674"><use
       height="100%"
       width="100%"
       y="0"
       x="0"
       xlink:href="#SVGID_11_"
       style="overflow:visible"
       id="use1672" /></clipPath><clipPath
     id="clipPath1678"><use
       height="100%"
       width="100%"
       y="0"
       x="0"
       xlink:href="#SVGID_11_"
       style="overflow:visible"
       id="use1676" /></clipPath><clipPath
     id="clipPath1682"><use
       height="100%"
       width="100%"
       y="0"
       x="0"
       xlink:href="#SVGID_11_"
       style="overflow:visible"
       id="use1680" /></clipPath><clipPath
     id="clipPath1686"><use
       height="100%"
       width="100%"
       y="0"
       x="0"
       xlink:href="#SVGID_11_"
       style="overflow:visible"
       id="use1684" /></clipPath><clipPath
     id="clipPath1690"><use
       height="100%"
       width="100%"
       y="0"
       x="0"
       xlink:href="#SVGID_11_"
       style="overflow:visible"
       id="use1688" /></clipPath><clipPath
     id="clipPath1694"><use
       height="100%"
       width="100%"
       y="0"
       x="0"
       xlink:href="#SVGID_11_"
       style="overflow:visible"
       id="use1692" /></clipPath><clipPath
     id="clipPath1698"><use
       height="100%"
       width="100%"
       y="0"
       x="0"
       xlink:href="#SVGID_11_"
       style="overflow:visible"
       id="use1696" /></clipPath><clipPath
     id="clipPath1702"><use
       height="100%"
       width="100%"
       y="0"
       x="0"
       xlink:href="#SVGID_11_"
       style="overflow:visible"
       id="use1700" /></clipPath><clipPath
     id="clipPath1706"><use
       height="100%"
       width="100%"
       y="0"
       x="0"
       xlink:href="#SVGID_11_"
       style="overflow:visible"
       id="use1704" /></clipPath><clipPath
     id="SVGID_10_"><use
       height="100%"
       width="100%"
       y="0"
       x="0"
       xlink:href="#SVGID_9_"
       style="overflow:visible"
       id="use197" /></clipPath><clipPath
     id="clipPath1712"><use
       height="100%"
       width="100%"
       y="0"
       x="0"
       xlink:href="#SVGID_9_"
       style="overflow:visible"
       id="use1710" /></clipPath><clipPath
     id="clipPath1716"><use
       height="100%"
       width="100%"
       y="0"
       x="0"
       xlink:href="#SVGID_9_"
       style="overflow:visible"
       id="use1714" /></clipPath><clipPath
     id="clipPath1720"><use
       height="100%"
       width="100%"
       y="0"
       x="0"
       xlink:href="#SVGID_9_"
       style="overflow:visible"
       id="use1718" /></clipPath><clipPath
     id="clipPath1724"><use
       height="100%"
       width="100%"
       y="0"
       x="0"
       xlink:href="#SVGID_9_"
       style="overflow:visible"
       id="use1722" /></clipPath><clipPath
     id="clipPath1728"><use
       height="100%"
       width="100%"
       y="0"
       x="0"
       xlink:href="#SVGID_9_"
       style="overflow:visible"
       id="use1726" /></clipPath><clipPath
     id="clipPath1732"><use
       height="100%"
       width="100%"
       y="0"
       x="0"
       xlink:href="#SVGID_9_"
       style="overflow:visible"
       id="use1730" /></clipPath><clipPath
     id="clipPath1736"><use
       height="100%"
       width="100%"
       y="0"
       x="0"
       xlink:href="#SVGID_9_"
       style="overflow:visible"
       id="use1734" /></clipPath><clipPath
     id="clipPath1740"><use
       height="100%"
       width="100%"
       y="0"
       x="0"
       xlink:href="#SVGID_9_"
       style="overflow:visible"
       id="use1738" /></clipPath><clipPath
     id="clipPath1744"><use
       height="100%"
       width="100%"
       y="0"
       x="0"
       xlink:href="#SVGID_9_"
       style="overflow:visible"
       id="use1742" /></clipPath><clipPath
     id="clipPath1748"><use
       height="100%"
       width="100%"
       y="0"
       x="0"
       xlink:href="#SVGID_9_"
       style="overflow:visible"
       id="use1746" /></clipPath><clipPath
     id="clipPath1752"><use
       height="100%"
       width="100%"
       y="0"
       x="0"
       xlink:href="#SVGID_9_"
       style="overflow:visible"
       id="use1750" /></clipPath><clipPath
     id="clipPath1756"><use
       height="100%"
       width="100%"
       y="0"
       x="0"
       xlink:href="#SVGID_9_"
       style="overflow:visible"
       id="use1754" /></clipPath><clipPath
     id="clipPath1760"><use
       height="100%"
       width="100%"
       y="0"
       x="0"
       xlink:href="#SVGID_9_"
       style="overflow:visible"
       id="use1758" /></clipPath><clipPath
     id="clipPath1764"><use
       height="100%"
       width="100%"
       y="0"
       x="0"
       xlink:href="#SVGID_9_"
       style="overflow:visible"
       id="use1762" /></clipPath><clipPath
     id="clipPath1768"><use
       height="100%"
       width="100%"
       y="0"
       x="0"
       xlink:href="#SVGID_9_"
       style="overflow:visible"
       id="use1766" /></clipPath><clipPath
     id="clipPath1772"><use
       height="100%"
       width="100%"
       y="0"
       x="0"
       xlink:href="#SVGID_9_"
       style="overflow:visible"
       id="use1770" /></clipPath><clipPath
     id="clipPath1776"><use
       height="100%"
       width="100%"
       y="0"
       x="0"
       xlink:href="#SVGID_9_"
       style="overflow:visible"
       id="use1774" /></clipPath><clipPath
     id="clipPath1780"><use
       height="100%"
       width="100%"
       y="0"
       x="0"
       xlink:href="#SVGID_9_"
       style="overflow:visible"
       id="use1778" /></clipPath><clipPath
     id="clipPath1784"><use
       height="100%"
       width="100%"
       y="0"
       x="0"
       xlink:href="#SVGID_9_"
       style="overflow:visible"
       id="use1782" /></clipPath><clipPath
     id="clipPath1788"><use
       height="100%"
       width="100%"
       y="0"
       x="0"
       xlink:href="#SVGID_9_"
       style="overflow:visible"
       id="use1786" /></clipPath><clipPath
     id="clipPath1792"><use
       height="100%"
       width="100%"
       y="0"
       x="0"
       xlink:href="#SVGID_9_"
       style="overflow:visible"
       id="use1790" /></clipPath><clipPath
     id="clipPath1796"><use
       height="100%"
       width="100%"
       y="0"
       x="0"
       xlink:href="#SVGID_9_"
       style="overflow:visible"
       id="use1794" /></clipPath><clipPath
     id="clipPath1800"><use
       height="100%"
       width="100%"
       y="0"
       x="0"
       xlink:href="#SVGID_9_"
       style="overflow:visible"
       id="use1798" /></clipPath><clipPath
     id="clipPath1804"><use
       height="100%"
       width="100%"
       y="0"
       x="0"
       xlink:href="#SVGID_9_"
       style="overflow:visible"
       id="use1802" /></clipPath><clipPath
     id="clipPath1808"><use
       height="100%"
       width="100%"
       y="0"
       x="0"
       xlink:href="#SVGID_9_"
       style="overflow:visible"
       id="use1806" /></clipPath><clipPath
     id="clipPath1812"><use
       height="100%"
       width="100%"
       y="0"
       x="0"
       xlink:href="#SVGID_9_"
       style="overflow:visible"
       id="use1810" /></clipPath><clipPath
     id="clipPath1816"><use
       height="100%"
       width="100%"
       y="0"
       x="0"
       xlink:href="#SVGID_9_"
       style="overflow:visible"
       id="use1814" /></clipPath><clipPath
     id="clipPath1820"><use
       height="100%"
       width="100%"
       y="0"
       x="0"
       xlink:href="#SVGID_9_"
       style="overflow:visible"
       id="use1818" /></clipPath><clipPath
     id="clipPath1824"><use
       height="100%"
       width="100%"
       y="0"
       x="0"
       xlink:href="#SVGID_9_"
       style="overflow:visible"
       id="use1822" /></clipPath><clipPath
     id="clipPath1828"><use
       height="100%"
       width="100%"
       y="0"
       x="0"
       xlink:href="#SVGID_9_"
       style="overflow:visible"
       id="use1826" /></clipPath><clipPath
     id="clipPath1832"><use
       height="100%"
       width="100%"
       y="0"
       x="0"
       xlink:href="#SVGID_9_"
       style="overflow:visible"
       id="use1830" /></clipPath><clipPath
     id="clipPath1836"><use
       height="100%"
       width="100%"
       y="0"
       x="0"
       xlink:href="#SVGID_9_"
       style="overflow:visible"
       id="use1834" /></clipPath><clipPath
     id="clipPath1840"><use
       height="100%"
       width="100%"
       y="0"
       x="0"
       xlink:href="#SVGID_9_"
       style="overflow:visible"
       id="use1838" /></clipPath><clipPath
     id="clipPath1844"><use
       height="100%"
       width="100%"
       y="0"
       x="0"
       xlink:href="#SVGID_9_"
       style="overflow:visible"
       id="use1842" /></clipPath><clipPath
     id="clipPath1848"><use
       height="100%"
       width="100%"
       y="0"
       x="0"
       xlink:href="#SVGID_9_"
       style="overflow:visible"
       id="use1846" /></clipPath><clipPath
     id="clipPath1852"><use
       height="100%"
       width="100%"
       y="0"
       x="0"
       xlink:href="#SVGID_9_"
       style="overflow:visible"
       id="use1850" /></clipPath><clipPath
     id="clipPath1856"><use
       height="100%"
       width="100%"
       y="0"
       x="0"
       xlink:href="#SVGID_9_"
       style="overflow:visible"
       id="use1854" /></clipPath><clipPath
     id="clipPath1860"><use
       height="100%"
       width="100%"
       y="0"
       x="0"
       xlink:href="#SVGID_9_"
       style="overflow:visible"
       id="use1858" /></clipPath><clipPath
     id="clipPath1864"><use
       height="100%"
       width="100%"
       y="0"
       x="0"
       xlink:href="#SVGID_9_"
       style="overflow:visible"
       id="use1862" /></clipPath><clipPath
     id="clipPath1868"><use
       height="100%"
       width="100%"
       y="0"
       x="0"
       xlink:href="#SVGID_9_"
       style="overflow:visible"
       id="use1866" /></clipPath><clipPath
     id="clipPath1872"><use
       height="100%"
       width="100%"
       y="0"
       x="0"
       xlink:href="#SVGID_9_"
       style="overflow:visible"
       id="use1870" /></clipPath><clipPath
     id="clipPath1876"><use
       height="100%"
       width="100%"
       y="0"
       x="0"
       xlink:href="#SVGID_9_"
       style="overflow:visible"
       id="use1874" /></clipPath><clipPath
     id="clipPath1880"><use
       height="100%"
       width="100%"
       y="0"
       x="0"
       xlink:href="#SVGID_9_"
       style="overflow:visible"
       id="use1878" /></clipPath><clipPath
     id="clipPath1884"><use
       height="100%"
       width="100%"
       y="0"
       x="0"
       xlink:href="#SVGID_9_"
       style="overflow:visible"
       id="use1882" /></clipPath><clipPath
     id="clipPath1888"><use
       height="100%"
       width="100%"
       y="0"
       x="0"
       xlink:href="#SVGID_9_"
       style="overflow:visible"
       id="use1886" /></clipPath><clipPath
     id="clipPath1892"><use
       height="100%"
       width="100%"
       y="0"
       x="0"
       xlink:href="#SVGID_9_"
       style="overflow:visible"
       id="use1890" /></clipPath><clipPath
     id="clipPath1896"><use
       height="100%"
       width="100%"
       y="0"
       x="0"
       xlink:href="#SVGID_9_"
       style="overflow:visible"
       id="use1894" /></clipPath><clipPath
     id="SVGID_8_"><use
       height="100%"
       width="100%"
       y="0"
       x="0"
       xlink:href="#SVGID_7_"
       style="overflow:visible"
       id="use93" /></clipPath><clipPath
     id="clipPath1902"><use
       height="100%"
       width="100%"
       y="0"
       x="0"
       xlink:href="#SVGID_7_"
       style="overflow:visible"
       id="use1900" /></clipPath><clipPath
     id="clipPath1906"><use
       height="100%"
       width="100%"
       y="0"
       x="0"
       xlink:href="#SVGID_7_"
       style="overflow:visible"
       id="use1904" /></clipPath><clipPath
     id="clipPath1910"><use
       height="100%"
       width="100%"
       y="0"
       x="0"
       xlink:href="#SVGID_7_"
       style="overflow:visible"
       id="use1908" /></clipPath><clipPath
     id="clipPath1914"><use
       height="100%"
       width="100%"
       y="0"
       x="0"
       xlink:href="#SVGID_7_"
       style="overflow:visible"
       id="use1912" /></clipPath><clipPath
     id="clipPath1918"><use
       height="100%"
       width="100%"
       y="0"
       x="0"
       xlink:href="#SVGID_7_"
       style="overflow:visible"
       id="use1916" /></clipPath><clipPath
     id="clipPath1922"><use
       height="100%"
       width="100%"
       y="0"
       x="0"
       xlink:href="#SVGID_7_"
       style="overflow:visible"
       id="use1920" /></clipPath><clipPath
     id="clipPath1926"><use
       height="100%"
       width="100%"
       y="0"
       x="0"
       xlink:href="#SVGID_7_"
       style="overflow:visible"
       id="use1924" /></clipPath><clipPath
     id="clipPath1930"><use
       height="100%"
       width="100%"
       y="0"
       x="0"
       xlink:href="#SVGID_7_"
       style="overflow:visible"
       id="use1928" /></clipPath><clipPath
     id="clipPath1934"><use
       height="100%"
       width="100%"
       y="0"
       x="0"
       xlink:href="#SVGID_7_"
       style="overflow:visible"
       id="use1932" /></clipPath><clipPath
     id="clipPath1938"><use
       height="100%"
       width="100%"
       y="0"
       x="0"
       xlink:href="#SVGID_7_"
       style="overflow:visible"
       id="use1936" /></clipPath><clipPath
     id="clipPath1942"><use
       height="100%"
       width="100%"
       y="0"
       x="0"
       xlink:href="#SVGID_7_"
       style="overflow:visible"
       id="use1940" /></clipPath><clipPath
     id="clipPath1946"><use
       height="100%"
       width="100%"
       y="0"
       x="0"
       xlink:href="#SVGID_7_"
       style="overflow:visible"
       id="use1944" /></clipPath><clipPath
     id="clipPath1950"><use
       height="100%"
       width="100%"
       y="0"
       x="0"
       xlink:href="#SVGID_7_"
       style="overflow:visible"
       id="use1948" /></clipPath><clipPath
     id="clipPath1954"><use
       height="100%"
       width="100%"
       y="0"
       x="0"
       xlink:href="#SVGID_7_"
       style="overflow:visible"
       id="use1952" /></clipPath><clipPath
     id="clipPath1958"><use
       height="100%"
       width="100%"
       y="0"
       x="0"
       xlink:href="#SVGID_7_"
       style="overflow:visible"
       id="use1956" /></clipPath><clipPath
     id="clipPath1962"><use
       height="100%"
       width="100%"
       y="0"
       x="0"
       xlink:href="#SVGID_7_"
       style="overflow:visible"
       id="use1960" /></clipPath><clipPath
     id="clipPath1966"><use
       height="100%"
       width="100%"
       y="0"
       x="0"
       xlink:href="#SVGID_7_"
       style="overflow:visible"
       id="use1964" /></clipPath><clipPath
     id="clipPath1970"><use
       height="100%"
       width="100%"
       y="0"
       x="0"
       xlink:href="#SVGID_7_"
       style="overflow:visible"
       id="use1968" /></clipPath><clipPath
     id="clipPath1974"><use
       height="100%"
       width="100%"
       y="0"
       x="0"
       xlink:href="#SVGID_7_"
       style="overflow:visible"
       id="use1972" /></clipPath><clipPath
     id="clipPath1978"><use
       height="100%"
       width="100%"
       y="0"
       x="0"
       xlink:href="#SVGID_7_"
       style="overflow:visible"
       id="use1976" /></clipPath><clipPath
     id="clipPath1982"><use
       height="100%"
       width="100%"
       y="0"
       x="0"
       xlink:href="#SVGID_7_"
       style="overflow:visible"
       id="use1980" /></clipPath><clipPath
     id="clipPath1986"><use
       height="100%"
       width="100%"
       y="0"
       x="0"
       xlink:href="#SVGID_7_"
       style="overflow:visible"
       id="use1984" /></clipPath><clipPath
     id="clipPath1990"><use
       height="100%"
       width="100%"
       y="0"
       x="0"
       xlink:href="#SVGID_7_"
       style="overflow:visible"
       id="use1988" /></clipPath><clipPath
     id="clipPath1994"><use
       height="100%"
       width="100%"
       y="0"
       x="0"
       xlink:href="#SVGID_7_"
       style="overflow:visible"
       id="use1992" /></clipPath><clipPath
     id="clipPath1998"><use
       height="100%"
       width="100%"
       y="0"
       x="0"
       xlink:href="#SVGID_7_"
       style="overflow:visible"
       id="use1996" /></clipPath><clipPath
     id="clipPath2002"><use
       height="100%"
       width="100%"
       y="0"
       x="0"
       xlink:href="#SVGID_7_"
       style="overflow:visible"
       id="use2000" /></clipPath><clipPath
     id="clipPath2006"><use
       height="100%"
       width="100%"
       y="0"
       x="0"
       xlink:href="#SVGID_7_"
       style="overflow:visible"
       id="use2004" /></clipPath><clipPath
     id="clipPath2010"><use
       height="100%"
       width="100%"
       y="0"
       x="0"
       xlink:href="#SVGID_7_"
       style="overflow:visible"
       id="use2008" /></clipPath><clipPath
     id="clipPath2014"><use
       height="100%"
       width="100%"
       y="0"
       x="0"
       xlink:href="#SVGID_7_"
       style="overflow:visible"
       id="use2012" /></clipPath><clipPath
     id="clipPath2018"><use
       height="100%"
       width="100%"
       y="0"
       x="0"
       xlink:href="#SVGID_7_"
       style="overflow:visible"
       id="use2016" /></clipPath><clipPath
     id="clipPath2022"><use
       height="100%"
       width="100%"
       y="0"
       x="0"
       xlink:href="#SVGID_7_"
       style="overflow:visible"
       id="use2020" /></clipPath><clipPath
     id="clipPath2026"><use
       height="100%"
       width="100%"
       y="0"
       x="0"
       xlink:href="#SVGID_7_"
       style="overflow:visible"
       id="use2024" /></clipPath><clipPath
     id="clipPath2030"><use
       height="100%"
       width="100%"
       y="0"
       x="0"
       xlink:href="#SVGID_7_"
       style="overflow:visible"
       id="use2028" /></clipPath><clipPath
     id="clipPath2034"><use
       height="100%"
       width="100%"
       y="0"
       x="0"
       xlink:href="#SVGID_7_"
       style="overflow:visible"
       id="use2032" /></clipPath><clipPath
     id="clipPath2038"><use
       height="100%"
       width="100%"
       y="0"
       x="0"
       xlink:href="#SVGID_7_"
       style="overflow:visible"
       id="use2036" /></clipPath><clipPath
     id="clipPath2042"><use
       height="100%"
       width="100%"
       y="0"
       x="0"
       xlink:href="#SVGID_7_"
       style="overflow:visible"
       id="use2040" /></clipPath><clipPath
     id="clipPath2046"><use
       height="100%"
       width="100%"
       y="0"
       x="0"
       xlink:href="#SVGID_7_"
       style="overflow:visible"
       id="use2044" /></clipPath><clipPath
     id="clipPath2050"><use
       height="100%"
       width="100%"
       y="0"
       x="0"
       xlink:href="#SVGID_7_"
       style="overflow:visible"
       id="use2048" /></clipPath><clipPath
     id="clipPath2054"><use
       height="100%"
       width="100%"
       y="0"
       x="0"
       xlink:href="#SVGID_7_"
       style="overflow:visible"
       id="use2052" /></clipPath><clipPath
     id="clipPath2058"><use
       height="100%"
       width="100%"
       y="0"
       x="0"
       xlink:href="#SVGID_7_"
       style="overflow:visible"
       id="use2056" /></clipPath><clipPath
     id="clipPath2062"><use
       height="100%"
       width="100%"
       y="0"
       x="0"
       xlink:href="#SVGID_7_"
       style="overflow:visible"
       id="use2060" /></clipPath><clipPath
     id="clipPath2066"><use
       height="100%"
       width="100%"
       y="0"
       x="0"
       xlink:href="#SVGID_7_"
       style="overflow:visible"
       id="use2064" /></clipPath><clipPath
     id="clipPath2070"><use
       height="100%"
       width="100%"
       y="0"
       x="0"
       xlink:href="#SVGID_7_"
       style="overflow:visible"
       id="use2068" /></clipPath><clipPath
     id="clipPath2074"><use
       height="100%"
       width="100%"
       y="0"
       x="0"
       xlink:href="#SVGID_7_"
       style="overflow:visible"
       id="use2072" /></clipPath><clipPath
     id="clipPath2078"><use
       height="100%"
       width="100%"
       y="0"
       x="0"
       xlink:href="#SVGID_7_"
       style="overflow:visible"
       id="use2076" /></clipPath><clipPath
     id="clipPath2082"><use
       height="100%"
       width="100%"
       y="0"
       x="0"
       xlink:href="#SVGID_7_"
       style="overflow:visible"
       id="use2080" /></clipPath><clipPath
     id="clipPath2086"><use
       height="100%"
       width="100%"
       y="0"
       x="0"
       xlink:href="#SVGID_7_"
       style="overflow:visible"
       id="use2084" /></clipPath><clipPath
     id="SVGID_6_"><use
       height="100%"
       width="100%"
       y="0"
       x="0"
       xlink:href="#SVGID_5_"
       style="overflow:visible"
       id="use69" /></clipPath><clipPath
     id="clipPath2092"><use
       height="100%"
       width="100%"
       y="0"
       x="0"
       xlink:href="#SVGID_5_"
       style="overflow:visible"
       id="use2090" /></clipPath><clipPath
     id="clipPath2096"><use
       height="100%"
       width="100%"
       y="0"
       x="0"
       xlink:href="#SVGID_5_"
       style="overflow:visible"
       id="use2094" /></clipPath><clipPath
     id="clipPath2100"><use
       height="100%"
       width="100%"
       y="0"
       x="0"
       xlink:href="#SVGID_5_"
       style="overflow:visible"
       id="use2098" /></clipPath><clipPath
     id="clipPath2104"><use
       height="100%"
       width="100%"
       y="0"
       x="0"
       xlink:href="#SVGID_5_"
       style="overflow:visible"
       id="use2102" /></clipPath><clipPath
     id="clipPath2108"><use
       height="100%"
       width="100%"
       y="0"
       x="0"
       xlink:href="#SVGID_5_"
       style="overflow:visible"
       id="use2106" /></clipPath><clipPath
     id="clipPath2112"><use
       height="100%"
       width="100%"
       y="0"
       x="0"
       xlink:href="#SVGID_5_"
       style="overflow:visible"
       id="use2110" /></clipPath><clipPath
     id="clipPath2116"><use
       height="100%"
       width="100%"
       y="0"
       x="0"
       xlink:href="#SVGID_5_"
       style="overflow:visible"
       id="use2114" /></clipPath><clipPath
     id="SVGID_4_"><use
       height="100%"
       width="100%"
       y="0"
       x="0"
       xlink:href="#SVGID_3_"
       style="overflow:visible"
       id="use51" /></clipPath><clipPath
     id="SVGID_2_"><use
       height="100%"
       width="100%"
       y="0"
       x="0"
       xlink:href="#SVGID_1_"
       style="overflow:visible"
       id="use17" /></clipPath><rect
     id="SVGID_1_"
     x="277"
     y="123.9"
     width="74"
     height="74.699997" /><rect
     id="SVGID_3_"
     x="123"
     y="218.7"
     width="88"
     height="63.900002" /><rect
     id="SVGID_5_"
     x="39"
     y="320.60001"
     width="626.90002"
     height="148" /><rect
     id="SVGID_7_"
     x="1590"
     y="-14.9"
     width="1242.1"
     height="1106.4" /><rect
     id="SVGID_9_"
     x="-660"
     y="524.09998"
     width="1242.1"
     height="1106.4" /><rect
     id="SVGID_11_"
     x="1615"
     y="1473.1"
     width="1242.1"
     height="1106.4" /><rect
     id="SVGID_13_"
     x="-497"
     y="1785.1"
     width="1242.1"
     height="1106.4" /><defs
     id="defs67"><rect
       height="148"
       width="626.90002"
       y="320.60001"
       x="39"
       id="rect3520" /></defs><clipPath
     id="clipPath2163"><use
       id="use2161"
       style="overflow:visible"
       xlink:href="#SVGID_5_"
       x="0"
       y="0"
       width="100%"
       height="100%" /></clipPath></defs><sodipodi:namedview
   pagecolor="#ffffff"
   bordercolor="#666666"
   borderopacity="1"
   objecttolerance="10"
   gridtolerance="10"
   guidetolerance="10"
   inkscape:pageopacity="0"
   inkscape:pageshadow="2"
   inkscape:window-width="1920"
   inkscape:window-height="1017"
   id="namedview507"
   showgrid="false"
   inkscape:zoom="0.27751645"
   inkscape:cx="563.92493"
   inkscape:cy="-848.22985"
   inkscape:window-x="-8"
   inkscape:window-y="-8"
   inkscape:window-maximized="1"
   inkscape:current-layer="layer2"
   fit-margin-top="0"
   fit-margin-left="0"
   fit-margin-right="0"
   fit-margin-bottom="0" />
<style
   type="text/css"
   id="style2">
	.st0{fill:#A67C52;}
	.st1{clip-path:url(#SVGID_2_);fill:none;stroke:#FFFFFF;stroke-width:5.311;}
	.st2{fill:#6C6C71;}
	.st3{fill:#BABBCB;}
	.st4{fill:#FFFFFF;}
	.st5{clip-path:url(#SVGID_4_);fill:none;stroke:#FFFFFF;stroke-width:3;}
	.st6{clip-path:url(#SVGID_6_);fill:#FFFFFF;}
	.st7{clip-path:url(#SVGID_6_);fill:#6C6C71;}
	.st8{clip-path:url(#SVGID_8_);fill:#FFFFFF;}
	.st9{clip-path:url(#SVGID_8_);fill:none;stroke:#FFFFFF;stroke-width:3;stroke-miterlimit:10;}
	.st10{clip-path:url(#SVGID_10_);fill:#FFFFFF;}
	.st11{clip-path:url(#SVGID_10_);fill:none;stroke:#FFFFFF;stroke-width:3;stroke-miterlimit:10;}
	.st12{clip-path:url(#SVGID_12_);fill:#FFFFFF;}
	.st13{clip-path:url(#SVGID_12_);fill:none;stroke:#FFFFFF;stroke-width:3;stroke-miterlimit:10;}
	.st14{clip-path:url(#SVGID_14_);fill:#FFFFFF;}
	.st15{clip-path:url(#SVGID_14_);fill:none;stroke:#FFFFFF;stroke-width:3;stroke-miterlimit:10;}
</style>
























<g
   inkscape:groupmode="layer"
   id="layer1"
   inkscape:label="Layer 1"
   sodipodi:insensitive="true"
   style="display:none"
   transform="translate(-483.75169,-438.86327)"><rect
     style="opacity:1;fill:#666666;fill-opacity:1;stroke:none;stroke-width:0.96755904;stroke-linecap:butt;stroke-linejoin:miter;stroke-miterlimit:4;stroke-dasharray:none;stroke-opacity:1"
     id="rect3750"
     width="7077.0576"
     height="6024.8682"
     x="-1844.9357"
     y="-879.22717" /></g><g
   inkscape:groupmode="layer"
   id="layer2"
   inkscape:label="Layer 2"
   transform="translate(-483.75169,-438.86327)"><path
     style="fill:#ffffff"
     id="path80"
     clip-path="url(#SVGID_6_)"
     d="m 272.6,320.6 c 40.9,0 74,33.1 74,74 0,40.9 -33.1,74 -74,74 -40.9,0 -74,-33.1 -74,-74 0,-40.9 33.2,-74 74,-74"
     class="st6"
     inkscape:connector-curvature="0"
     transform="translate(285.15169,118.26326)" /><path
     style="fill:#6c6c71"
     id="path82"
     clip-path="url(#SVGID_6_)"
     d="m 303,398.4 c -1.1,-3.3 -3.5,-6.3 -6.7,-8.9 1.1,-0.9 2.2,-1.3 3.7,-1.3 3,0 5.7,2.6 5.7,5.7 -0.1,1.9 -0.9,3.6 -2.7,4.5 m -19.8,5.4 c -2.6,0 -4.6,-2.2 -4.6,-4.6 0,-2.4 2.2,-4.6 4.6,-4.6 2.6,0 4.6,2.2 4.6,4.6 0,2.4 -2,4.6 -4.6,4.6 m 0.7,9.2 c -2.4,2.4 -6.1,3.5 -11.3,3.5 -5.2,0 -8.9,-1.1 -11.3,-3.5 -0.4,-0.4 -0.4,-1.1 0,-1.5 0.4,-0.4 1.1,-0.4 1.5,0 2,2 5,2.8 9.8,2.8 4.6,0 7.8,-0.9 9.8,-2.8 0.4,-0.4 1.1,-0.4 1.5,0 0.4,0.4 0.4,1 0,1.5 m -26.8,-13.7 c 0,-2.6 2.2,-4.6 4.6,-4.6 2.6,0 4.6,2.2 4.6,4.6 0,2.4 -2.2,4.6 -4.6,4.6 -2.4,-0.1 -4.6,-2.3 -4.6,-4.6 m -15.2,-0.9 c -1.3,-1.1 -2.2,-2.6 -2.2,-4.6 0,-3 2.6,-5.7 5.7,-5.7 1.3,0 2.4,0.4 3.5,1.3 -3.6,2.5 -6,5.5 -7,9 M 296.7,367 c 2.4,0 4.1,2 4.1,4.1 0,2.1 -2,4.1 -4.1,4.1 -2.4,0 -4.1,-2 -4.1,-4.1 0,-2.1 1.7,-4.1 4.1,-4.1 m 3.3,19 c -2,0 -3.9,0.9 -5.4,2.2 -5.2,-3.5 -12.6,-5.9 -20.5,-6.1 l 4.4,-13.7 11.8,2.8 v 0.2 c 0,3.5 2.8,6.3 6.3,6.3 3.5,0 6.3,-2.8 6.3,-6.3 0,-3.5 -2.8,-6.3 -6.3,-6.3 -2.6,0 -5,1.7 -5.9,4.1 l -12.6,-3 c -0.7,-0.2 -1.1,0.2 -1.3,0.7 l -4.8,15.5 c -8.3,0 -15.9,2.4 -21.5,5.9 -1.5,-1.3 -3.3,-2.2 -5.2,-2.2 -4.4,0 -7.8,3.5 -7.8,7.8 0,2.8 1.5,5.4 3.9,6.7 -0.2,0.9 -0.2,1.7 -0.2,2.6 0,11.5 14.1,20.9 31.6,20.9 17.4,0 31.6,-9.4 31.6,-20.9 0,-0.9 0,-1.5 -0.2,-2.4 2.6,-1.3 4.1,-3.9 4.1,-7 -0.5,-4.3 -4,-7.8 -8.3,-7.8"
     class="st7"
     inkscape:connector-curvature="0"
     transform="translate(285.15169,118.26326)" /></g></svg>