<?xml version="1.0" encoding="UTF-8" standalone="no"?>
<!-- Generator: Adobe Illustrator 16.0.0, SVG Export Plug-In . SVG Version: 6.00 Build 0)  -->

<svg
   xmlns:dc="http://purl.org/dc/elements/1.1/"
   xmlns:cc="http://creativecommons.org/ns#"
   xmlns:rdf="http://www.w3.org/1999/02/22-rdf-syntax-ns#"
   xmlns:svg="http://www.w3.org/2000/svg"
   xmlns="http://www.w3.org/2000/svg"
   xmlns:sodipodi="http://sodipodi.sourceforge.net/DTD/sodipodi-0.dtd"
   xmlns:inkscape="http://www.inkscape.org/namespaces/inkscape"
   version="1.1"
   id="Layer_1"
   x="0px"
   y="0px"
   width="832.85199"
   height="841.48102"
   viewBox="0 0 832.85203 841.48099"
   enable-background="new 0 0 2447.692 1153.92"
   xml:space="preserve"
   sodipodi:docname="simbolo.svg"
   inkscape:version="0.92.3 (2405546, 2018-03-11)"><metadata
   id="metadata87"><rdf:RDF><cc:Work
       rdf:about=""><dc:format>image/svg+xml</dc:format><dc:type
         rdf:resource="http://purl.org/dc/dcmitype/StillImage" /><dc:title></dc:title></cc:Work></rdf:RDF></metadata><defs
   id="defs85" /><sodipodi:namedview
   pagecolor="#ffffff"
   bordercolor="#666666"
   borderopacity="1"
   objecttolerance="10"
   gridtolerance="10"
   guidetolerance="10"
   inkscape:pageopacity="0"
   inkscape:pageshadow="2"
   inkscape:window-width="1920"
   inkscape:window-height="1017"
   id="namedview83"
   showgrid="false"
   fit-margin-top="0"
   fit-margin-left="0"
   fit-margin-right="0"
   fit-margin-bottom="0"
   inkscape:zoom="0.46901328"
   inkscape:cx="1241.7443"
   inkscape:cy="333.67635"
   inkscape:window-x="-8"
   inkscape:window-y="-8"
   inkscape:window-maximized="1"
   inkscape:current-layer="Layer_1" />

<g
   id="g80"
   transform="translate(-158.832,-156.56)">
	<g
   id="g54">
		<polygon
   points="575.389,156.56 575.389,637.425 991.684,877.822 991.684,396.974 "
   id="polygon50"
   style="fill:#6b6c6f" />
		<polygon
   points="575.389,156.56 575.285,637.441 158.832,877.876 158.889,396.943 "
   id="polygon52"
   style="fill:#5cffff" />
	</g>
	<g
   id="g62">
		<polygon
   points="575.285,998.041 575.285,637.441 262.998,457.023 262.949,817.71 "
   id="polygon56"
   style="fill:#6b6c6f" />
		<polygon
   points="575.285,998.041 575.285,637.441 887.664,457.138 887.629,817.709 "
   id="polygon58"
   style="fill:#5cffff" />
		<polygon
   points="575.285,637.441 887.664,457.138 575.389,276.781 262.998,457.023 "
   id="polygon60"
   style="fill:#ffffff" />
	</g>
	<g
   id="g70">
		<polygon
   points="575.338,397.027 575.338,637.261 783.533,757.591 783.48,517.081 "
   id="polygon64"
   style="fill:#6b6c6f" />
		<polygon
   points="575.338,397.027 575.338,637.261 367.158,757.601 366.967,517.216 "
   id="polygon66"
   style="fill:#5cffff" />
		<polygon
   points="575.338,637.261 367.158,757.601 575.389,877.878 783.533,757.591 "
   id="polygon68"
   style="fill:#ffffff" />
	</g>
	<g
   id="g78">
		<polygon
   points="575.285,757.571 575.285,637.38 471.246,577.315 471.246,697.566 "
   id="polygon72"
   style="fill:#6b6c6f" />
		<polygon
   points="575.285,757.571 575.285,637.38 679.438,577.326 679.438,697.509 "
   id="polygon74"
   style="fill:#5cffff" />
		<polygon
   points="575.26,637.41 679.438,577.326 575.344,517.162 471.246,577.315 "
   id="polygon76"
   style="fill:#ffffff" />
	</g>
</g>
</svg>